<?xml version="1.0" standalone="no"?>
<!DOCTYPE svg PUBLIC "-//W3C//DTD SVG 1.1//EN" "http://www.w3.org/Graphics/SVG/1.1/DTD/svg11.dtd" >
<svg xmlns="http://www.w3.org/2000/svg">
  <metadata>Created by iconfont</metadata>
  <defs>
  <font id="iconfont" horiz-adv-x="1024">
    <font-face
      font-family="iconfont"
      font-weight="400"
      font-stretch="normal"
      units-per-em="1024"
      ascent="896"
      descent="-128"
    />
      <missing-glyph />
      
      <glyph glyph-name="shengchengditu" unicode="&#59473;" d="M862.54592 750.811429l-17.554286 17.481142a311.808 311.808 0 0 1-47.177143 36.717715C743.615634 843.483429 680.566491 869.741714 614.152777 885.467429A449.536 449.536 0 0 1 544.155063 896h-40.228572c-10.532571 0-22.747429 0-33.28-1.755429-22.674286-1.755429-47.177143-5.266286-69.924571-10.459428-66.56-14.043429-129.462857-40.228571-183.734857-78.774857l-47.177143-36.717715-24.502857-24.502857A500.955429 500.955429 0 0 1 0.045349 385.170286c1.755429-134.729143 54.198857-262.436571 152.137142-356.937143l17.554286-17.408c15.725714-14.043429 29.696-26.258286 47.177143-36.790857a492.251429 492.251429 0 0 1 166.253714-75.190857c22.674286-5.266286 45.421714-10.532571 68.169143-12.214858 19.236571-1.755429 36.790857-3.510857 56.027429-3.510857h3.437714c17.554286 0 35.035429 1.755429 52.516571 3.510857 22.747429 3.437714 47.250286 6.948571 68.242286 12.214858a506.368 506.368 0 0 1 164.425143 76.946285l47.250286 36.790857c104.96 94.427429 171.446857 230.912 169.691428 383.122286 0 132.900571-52.516571 258.925714-150.454857 355.108572zM955.291063 418.377143H705.142491a1610.24 1610.24 0 0 1-28.013714 248.393143 540.891429 540.891429 0 0 1 122.441143 62.902857 451.291429 451.291429 0 0 0 155.721143-311.296z m-330.605714-293.961143a571.245714 571.245714 0 0 1-122.514286 14.043429c-38.473143 0-76.946286-5.266286-113.737143-14.043429-12.214857 75.264-17.481143 153.965714-19.236571 234.422857h272.896c1.755429-80.457143-5.193143-157.403429-17.481143-234.422857z m-227.474286 526.628571c34.962286-8.777143 71.68-12.288 110.226286-12.288h3.510857c36.717714 0 71.68 3.510857 106.642285 12.288 14.043429-75.264 22.747429-152.210286 26.331429-232.667428H370.879634c3.510857 78.701714 12.288 157.403429 26.258286 232.594286z m351.597714 115.419429a376.978286 376.978286 0 0 0-83.968-41.984c-8.777143 31.451429-17.481143 62.976-26.185143 92.745143a392.192 392.192 0 0 0 110.153143-50.761143zM503.999634 838.217143h3.510857c20.992 0 41.984-1.682286 61.220572-3.437714 13.970286-40.228571 26.258286-82.212571 36.717714-125.952a411.428571 411.428571 0 0 0-94.427428-10.532572h-3.510858a454.217143 454.217143 0 0 0-98.011428 10.532572c10.532571 43.739429 22.747429 85.723429 36.790857 125.952 19.236571 1.755429 38.473143 3.510857 57.709714 3.510857z m-127.707428-20.918857c-8.777143-29.769143-17.554286-61.220571-26.258286-92.745143a376.978286 376.978286 0 0 0-83.968 41.984c34.962286 22.747429 71.68 40.228571 110.226286 50.761143zM216.987063 729.819429a540.818286 540.818286 0 0 1 122.514286-62.976 1660.928 1660.928 0 0 1-28.013715-248.393143H59.583634a446.317714 446.317714 0 0 0 157.403429 311.369143zM59.583634 358.985143h250.148572c0-85.796571 7.021714-171.52 20.992-251.977143a540.891429 540.891429 0 0 1-113.737143-59.465143A446.317714 446.317714 0 0 0 59.583634 358.912z m206.409143-348.16c22.747429 15.725714 49.005714 27.940571 75.264 38.473143 5.193143-28.013714 12.214857-57.782857 20.992-83.968a373.833143 373.833143 0 0 0-96.256 45.494857z m244.955429-71.68h-3.510857c-26.331429 0-52.516571 1.682286-77.019429 6.948571a869.522286 869.522286 0 0 0-29.696 120.685715c33.206857 8.777143 68.169143 12.288 104.96 12.288h3.510857c36.717714 0 73.435429-5.266286 106.715429-12.288a2030.445714 2030.445714 0 0 0-29.769143-120.685715c-26.258286-3.510857-50.761143-5.266286-75.190857-7.021714z m141.677714 24.429714l20.992 83.968c26.258286-10.459429 50.688-22.674286 75.190857-38.473143-29.696-17.554286-61.220571-33.28-96.182857-45.494857z m145.188571 83.968a470.089143 470.089143 0 0 1-113.737142 59.465143c14.043429 80.457143 20.992 166.180571 20.992 251.904h250.148571a446.317714 446.317714 0 0 0-157.403429-311.369143z"  horiz-adv-x="1024" />
      
      <glyph glyph-name="info-circle" unicode="&#59262;" d="M512 832C264.6 832 64 631.4 64 384s200.6-448 448-448 448 200.6 448 448S759.4 832 512 832z m0-820c-205.4 0-372 166.6-372 372s166.6 372 372 372 372-166.6 372-372-166.6-372-372-372zM512 560m-48 0a48 48 0 1 1 96 0 48 48 0 1 1-96 0ZM536 448h-48c-4.4 0-8-3.6-8-8v-272c0-4.4 3.6-8 8-8h48c4.4 0 8 3.6 8 8V440c0 4.4-3.6 8-8 8z"  horiz-adv-x="1024" />
      
      <glyph glyph-name="baocunditu" unicode="&#59467;" d="M512 512c55.588571 0 107.812571-21.577143 147.090286-60.928 39.277714-39.277714 60.928-91.428571 60.928-147.017143 0-55.588571-21.650286-107.885714-60.928-147.163428A206.555429 206.555429 0 0 0 512 96.036571c-55.588571 0-107.812571 21.577143-147.090286 60.854858a206.555429 206.555429 0 0 0-60.928 147.090285c0 55.588571 21.650286 107.812571 60.928 147.090286A206.555429 206.555429 0 0 0 512 512z m0 64a272.091429 272.091429 0 1 1 0-544.036571 272.091429 272.091429 0 0 1 0 544.036571zM650.898286 768l4.388571-23.625143c11.410286-60.489143 64.365714-104.374857 125.805714-104.374857h114.907429c35.328 0 64-28.672 64-64v-512a64.073143 64.073143 0 0 0-64-64H128a64.073143 64.073143 0 0 0-64 64v512c0 35.328 28.672 64 64 64h114.834286c61.659429 0 114.541714 43.885714 125.805714 104.374857l4.461714 23.625143h277.796572z m39.789714 64H333.312a15.945143 15.945143 0 0 1-15.725714-13.165714l-11.776-62.610286a64 64 0 0 0-62.902857-52.224H128A128 128 0 0 1 0 576v-512c0-70.729143 57.270857-128 128-128h768a128 128 0 0 1 128 128v512a128 128 0 0 1-128 128h-114.834286a64 64 0 0 0-62.902857 52.224l-11.849143 62.683429a15.945143 15.945143 0 0 1-15.725714 13.092571zM224.036571 543.963429h-64.073142a31.963429 31.963429 0 1 0 0 64h64.073142a31.963429 31.963429 0 1 0 0-63.926858zM512 336.091429a32.109714 32.109714 0 0 0 0-64 32.109714 32.109714 0 0 0-32.036571 31.963428c0 17.554286 14.409143 32.036571 32.036571 32.036572z m0 64a96.036571 96.036571 0 1 1 0-192.073143A96.036571 96.036571 0 0 1 512 400.091429z"  horiz-adv-x="1024" />
      
      <glyph glyph-name="chengshixuanze1" unicode="&#59468;" d="M854.601143 606.866286a362.496 362.496 0 0 1-79.872 115.712A375.076571 375.076571 0 0 1 512 829.001143c-50.102857 0-98.742857-9.581714-144.530286-28.525714a372.516571 372.516571 0 0 1-118.198857-77.750858c-34.157714-33.426286-61.074286-72.411429-79.872-115.712a355.181714 355.181714 0 0 1-29.403428-142.043428c0-70.582857 16.896-140.873143 50.102857-208.676572a660.553143 660.553143 0 0 1 111.030857-158.061714A893.147429 893.147429 0 0 1 489.472-54.857143a43.885714 43.885714 0 0 1 44.836571 0 893.147429 893.147429 0 0 1 188.416 153.014857 658.578286 658.578286 0 0 1 110.957715 158.061715 468.772571 468.772571 0 0 1 50.322285 208.603428c0 49.225143-9.874286 96.987429-29.403428 141.970286zM512 15.798857c-65.901714 41.910857-300.032 207.798857-300.032 449.097143 0 77.897143 31.158857 151.113143 87.625143 206.262857A302.226286 302.226286 0 0 0 512 757.028571c80.310857 0 155.721143-30.500571 212.406857-85.942857a286.061714 286.061714 0 0 0 87.625143-206.189714c0-241.298286-234.130286-407.186286-300.032-449.097143z m0 617.179429a175.981714 175.981714 0 1 1 0-351.963429 175.981714 175.981714 0 0 1 0 351.963429z m79.213714-255.195429c-21.211429-21.065143-49.298286-32.768-79.213714-32.768-29.915429 0-58.002286 11.702857-79.213714 32.768a111.616 111.616 0 0 0-32.768 79.213714c0 29.915429 11.702857 58.002286 32.768 79.213715A111.177143 111.177143 0 0 0 512 568.978286c29.915429 0 58.002286-11.556571 79.213714-32.768 21.211429-21.211429 32.768-49.298286 32.768-79.213715 0-29.915429-11.556571-58.002286-32.768-79.213714z"  horiz-adv-x="1024" />
      
      <glyph glyph-name="shijianxuanze" unicode="&#59469;" d="M825.929143 714.166857H741.668571v54.418286a27.940571 27.940571 0 0 1-27.282285 28.525714 27.940571 27.940571 0 0 1-27.282286-28.525714v-54.418286H336.896v54.418286a27.940571 27.940571 0 0 1-27.282286 28.525714 27.940571 27.940571 0 0 1-27.282285-28.525714v-54.418286H198.070857c-45.202286 0-81.92-38.473143-81.92-85.796571v-571.757715c0-47.323429 36.717714-85.796571 81.92-85.796571h627.858286c45.202286 0 81.92 38.473143 81.92 85.796571V628.370286c0 47.323429-36.717714 85.796571-81.92 85.796571z m-627.858286-57.197714H282.331429v-50.688c0-15.798857 12.214857-28.525714 27.282285-28.525714a27.940571 27.940571 0 0 1 27.282286 28.525714v50.688h350.208v-50.688c0-15.798857 12.214857-28.525714 27.282286-28.525714a27.940571 27.940571 0 0 1 27.282285 28.525714v50.688h84.260572c15.067429 0 27.282286-12.873143 27.282286-28.598857v-138.971429h-682.422858v138.971429c0 15.725714 12.214857 28.525714 27.282286 28.525714z m627.858286-628.955429H198.070857a28.013714 28.013714 0 0 0-27.282286 28.598857V432.274286h682.422858v-375.588572a28.013714 28.013714 0 0 0-27.282286-28.525714zM641.097143 266.020571h-258.194286a27.940571 27.940571 0 0 1-27.282286-28.598857c0-15.798857 12.214857-28.598857 27.282286-28.598857h258.194286a27.940571 27.940571 0 0 1 27.282286 28.525714 27.940571 27.940571 0 0 1-27.282286 28.672z"  horiz-adv-x="1024" />
      
      <glyph glyph-name="zidingyimingcheng" unicode="&#59470;" d="M106.642286 682.642286a64 64 0 1 1 128 0 64 64 0 0 1-128 0z m0-298.642286a64 64 0 1 1 128 0 64 64 0 0 1-128 0z m0-298.642286a64 64 0 1 1 128 0 64 64 0 0 1-128 0z m789.357714 31.963429H362.642286a32.841143 32.841143 0 0 1-31.963429-31.963429c0-17.115429 14.921143-32.036571 31.963429-32.036571h533.357714a32.841143 32.841143 0 0 1 32.036571 32.036571 32.841143 32.841143 0 0 1-32.036571 31.963429zM362.642286 650.678857h533.357714a32.841143 32.841143 0 0 1 32.036571 31.963429 32.841143 32.841143 0 0 1-32.036571 32.036571H362.642286a32.841143 32.841143 0 0 1-31.963429-32.036571c0-17.042286 14.921143-31.963429 31.963429-31.963429z m533.357714-234.642286H362.642286A32.841143 32.841143 0 0 1 330.678857 384c0-17.042286 14.921143-32.036571 31.963429-32.036571h533.357714A32.841143 32.841143 0 0 1 928.036571 384a32.841143 32.841143 0 0 1-32.036571 32.036571z"  horiz-adv-x="1024" />
      
      <glyph glyph-name="yansepeizhi" unicode="&#59471;" d="M588.653714 768l11.995429-83.163429 4.827428-34.377142 31.158858-14.409143c12.8-6.363429 26.404571-13.604571 38.4-21.577143l28.013714-18.432 31.232 11.995428 81.554286 32.036572 75.995428-127.195429-67.218286-51.2-28.013714-21.577143 3.218286-35.181714c0.804571-7.241143 0.804571-14.409143 0.804571-20.845714 0-6.363429 0-13.531429-0.731428-20.772572l-3.291429-35.181714 28.013714-21.577143 67.218286-51.2-75.190857-127.195428-82.358857 32.036571-31.232 11.995429-28.013714-18.432c-12.8-8.777143-25.6-16.018286-38.4-21.577143l-31.158858-14.409143-4.827428-33.645714-11.995429-83.894857h-153.6l-11.922285 83.163428-4.827429 34.377143-31.158857 14.409143a362.422857 362.422857 0 0 0-38.4 21.577143l-28.013714 18.432-31.158858-11.995429-81.627428-32.036571-75.995429 127.195428 67.218286 51.2 28.013714 21.577143-3.218285 35.181714c-0.804571 7.241143-0.804571 14.409143-0.804572 20.772572 0 6.436571 0 13.604571 0.731429 20.845714l3.291428 35.108572-28.013714 21.650285-67.218286 51.2 75.190857 127.195429 82.432-32.036572 31.158858-11.995428 28.013714 18.432c12.8 8.777143 25.6 16.018286 38.4 21.577143l31.158857 14.409143 4.827429 33.645714 11.995428 83.894857h153.6m8.777143 64h-171.154286a53.540571 53.540571 0 0 1-53.613714-44.763429L359.862857 694.418286a349.403429 349.403429 0 0 1-47.177143-26.331429l-90.404571 35.108572a53.76 53.76 0 0 1-19.163429 3.218285 51.785143 51.785143 0 0 1-46.445714-26.331428L71.168 535.990857a52.150857 52.150857 0 0 1 12.8-68.022857l75.995429-57.563429c-0.731429-9.508571-1.609143-18.358857-1.609143-26.331428 0-8.045714 0-16.822857 1.609143-26.404572l-75.995429-57.636571a51.858286 51.858286 0 0 1-12.8-68.022857l84.845714-143.140572a54.710857 54.710857 0 0 1 65.536-23.990857l90.404572 35.181715c15.213714-10.386286 31.158857-19.163429 47.177143-26.331429l13.604571-92.013714c3.218286-25.6 26.331429-45.568 53.540571-45.568h171.154286a53.540571 53.540571 0 0 1 53.613714 44.763428l13.604572 92.818286c16.018286 7.168 31.232 15.945143 47.177143 26.331429l90.404571-35.108572a53.76 53.76 0 0 1 19.163429-3.218286 51.785143 51.785143 0 0 1 46.445714 26.331429l85.577143 144.822857a52.004571 52.004571 0 0 1-13.604572 67.145143l-75.995428 57.636571c0.804571 7.972571 1.609143 16.822857 1.609143 26.331429 0 9.654857-0.804571 18.432-1.609143 26.404571l75.995428 57.636572a51.858286 51.858286 0 0 1 12.8 68.022857l-84.845714 143.140571a54.710857 54.710857 0 0 1-65.536 23.990858l-90.404571-35.254858a306.761143 306.761143 0 0 1-47.177143 26.404572l-13.604572 92.013714A53.540571 53.540571 0 0 1 597.577143 832z m-85.577143-319.926857c70.363429 0 128-57.563429 128-128 0-70.363429-57.636571-128-128-128-70.436571 0-128 57.636571-128 128 0 70.436571 57.563429 128 128 128m0 64A192.512 192.512 0 0 1 319.926857 384 192.512 192.512 0 0 1 512 192.146286a192.512 192.512 0 0 1 191.926857 191.926857 192.512 192.512 0 0 1-191.926857 192z"  horiz-adv-x="1024" />
      
      <glyph glyph-name="zhibiaoxuanze" unicode="&#59472;" d="M464.018286 751.981714H159.963429a16.091429 16.091429 0 0 1-15.945143-15.945143v-304.054857c0-8.777143 7.168-15.945143 15.945143-15.945143h304.054857a16.091429 16.091429 0 0 1 15.945143 15.945143V736.036571a16.091429 16.091429 0 0 1-15.945143 15.945143z m-52.004572-267.995428H211.968V684.032h200.045714v-200.045714z m452.022857 267.995428H559.908571a16.091429 16.091429 0 0 1-15.945142-15.945143v-304.054857c0-8.777143 7.168-15.945143 15.945142-15.945143h304.054858a16.091429 16.091429 0 0 1 15.945142 15.945143V736.036571a16.091429 16.091429 0 0 1-16.018285 15.945143z m-52.004571-267.995428H611.986286V684.032h200.045714v-200.045714zM464.018286 352.036571H159.963429a16.091429 16.091429 0 0 1-15.945143-16.091428v-303.908572c0-8.777143 7.168-16.091429 15.945143-16.091428h304.054857a16.091429 16.091429 0 0 1 15.945143 16.091428V335.945143a16.091429 16.091429 0 0 1-15.945143 15.945143z m-52.004572-268.068571H211.968V284.013714h200.045714v-200.045714z m452.022857 268.068571H559.908571a16.091429 16.091429 0 0 1-15.945142-16.091428v-303.908572c0-8.777143 7.168-16.091429 15.945142-16.091428h304.054858a16.091429 16.091429 0 0 1 15.945142 16.091428V335.945143a16.091429 16.091429 0 0 1-16.018285 15.945143z m-52.004571-268.068571H611.986286V284.013714h200.045714v-200.045714z"  horiz-adv-x="1024" />
      
      <glyph glyph-name="dakaiquanping" unicode="&#59465;" d="M789.723429 697.490286H579.584a35.328 35.328 0 0 1-35.254857-34.596572 35.693714 35.693714 0 0 1 35.913143-35.986285h125.805714L579.584 500.443429a35.328 35.328 0 0 1 0-49.810286 35.328 35.328 0 0 1 49.883429 0l125.44 125.44V449.828571c0-19.236571 15.506286-34.889143 34.596571-35.254857 19.748571-0.438857 35.986286 16.091429 35.986286 35.913143V661.723429a35.766857 35.766857 0 0 1-35.84 35.766857z m-346.112-556.397715h-125.805715l126.537143 126.464a35.328 35.328 0 0 1 0 49.810286 35.328 35.328 0 0 1-49.737143 0L269.019429 191.926857V318.390857a35.328 35.328 0 0 1-34.596572 35.254857 35.693714 35.693714 0 0 1-35.986286-35.986285v-211.163429c0-19.894857 16.091429-35.986286 35.986286-35.986286h209.92c19.163429 0 34.889143 15.36 35.254857 34.596572a35.84 35.84 0 0 1-36.059428 35.986285z m387.730285 611.254858c27.062857 0 49.005714-21.942857 49.005715-49.005715v-638.683428c0-27.062857-21.942857-49.005714-49.005715-49.005715H192.658286a49.005714 49.005714 0 0 0-49.005715 49.005715V703.341714c0 27.062857 21.942857 49.005714 49.005715 49.005715h638.683428m0 70.509714H192.658286a118.637714 118.637714 0 0 1-84.553143-34.962286A118.637714 118.637714 0 0 1 73.142857 703.341714v-638.683428a118.637714 118.637714 0 0 1 34.962286-84.553143A118.637714 118.637714 0 0 1 192.658286-54.857143h638.683428a118.637714 118.637714 0 0 1 84.553143 34.962286A118.637714 118.637714 0 0 1 950.857143 64.658286V703.341714a118.637714 118.637714 0 0 1-34.962286 84.553143A118.637714 118.637714 0 0 1 831.341714 822.857143z"  horiz-adv-x="1024" />
      
      <glyph glyph-name="shouqiquanping" unicode="&#59466;" d="M580.022857 414.427429h210.139429c19.236571 0 34.889143 15.36 35.328 34.596571a35.693714 35.693714 0 0 1-35.986286 35.986286h-125.805714l126.537143 126.464a35.328 35.328 0 0 1 0 49.810285 35.328 35.328 0 0 1-49.883429 0L614.838857 535.844571V662.162286a35.328 35.328 0 0 1-34.596571 35.328 35.693714 35.693714 0 0 1-35.913143-35.986286v-211.309714c0-19.675429 15.945143-35.766857 35.766857-35.766857zM360.448 283.136l-126.537143-126.537143a35.328 35.328 0 0 1 0-49.810286 35.328 35.328 0 0 1 49.810286 0l125.513143 125.513143v-126.537143c0-19.163429 15.433143-34.816 34.596571-35.254857 19.748571-0.365714 35.913143 16.091429 35.913143 35.986286V317.659429a35.913143 35.913143 0 0 1-35.913143 35.986285h-209.92a35.328 35.328 0 0 1-35.328-34.596571 35.84 35.84 0 0 1 36.059429-35.913143h125.805714z m471.04 469.211429c26.989714 0 48.932571-21.942857 48.932571-49.005715v-638.683428c0-27.062857-21.942857-49.005714-49.005714-49.005715H192.658286a49.005714 49.005714 0 0 0-49.005715 49.005715V703.341714c0 27.062857 21.942857 49.005714 49.005715 49.005715h638.683428M192.658286 822.857143a118.637714 118.637714 0 0 1-84.553143-34.962286A118.637714 118.637714 0 0 1 73.142857 703.341714v-638.683428a118.637714 118.637714 0 0 1 34.962286-84.553143A118.637714 118.637714 0 0 1 192.658286-54.857143h638.683428a118.637714 118.637714 0 0 1 84.553143 34.962286A118.637714 118.637714 0 0 1 950.857143 64.658286V703.341714a118.637714 118.637714 0 0 1-34.962286 84.553143A118.637714 118.637714 0 0 1 831.341714 822.857143H192.658286z"  horiz-adv-x="1024" />
      
      <glyph glyph-name="check-circle" unicode="&#59261;" d="M699 543h-46.9c-10.2 0-19.9-4.9-25.9-13.3L469 311.70000000000005l-71.2 98.8c-6 8.3-15.6 13.3-25.9 13.3H325c-6.5 0-10.3-7.4-6.5-12.7l124.6-172.8c12.7-17.7 39-17.7 51.7 0l210.6 292c3.9 5.3 0.1 12.7-6.4 12.7zM512 832C264.6 832 64 631.4 64 384s200.6-448 448-448 448 200.6 448 448S759.4 832 512 832z m0-820c-205.4 0-372 166.6-372 372s166.6 372 372 372 372-166.6 372-372-166.6-372-372-372z"  horiz-adv-x="1024" />
      
      <glyph glyph-name="baocunzuhe" unicode="&#59453;" d="M880 597.632H520.96L403.776 709.76a8.128 8.128 0 0 1-5.504 2.176H144a32 32 0 0 1-32-32v-592a32 32 0 0 1 32-32h736a32 32 0 0 1 32 32V565.632a32 32 0 0 1-32 32zM840 128H184V640H372.48l119.68-114.368h347.84V128z"  horiz-adv-x="1024" />
      
      <glyph glyph-name="bianji" unicode="&#59454;" d="M257.682286 144.018286a40.448 40.448 0 0 1 5.997714 0.512l168.228571 29.476571a9.801143 9.801143 0 0 1 5.266286 2.779429l423.936 423.936a9.947429 9.947429 0 0 1 0 14.043428L694.857143 781.165714a9.874286 9.874286 0 0 1-7.094857 2.925715 9.874286 9.874286 0 0 1-7.168-2.925715L256.804571 357.229714a10.166857 10.166857 0 0 1-2.779428-5.339428l-29.549714-168.228572a33.865143 33.865143 0 0 1 33.206857-39.716571z m67.437714 174.372571l362.715429 362.642286 73.289142-73.362286-362.788571-362.569143-88.868571-15.725714 15.652571 89.014857z m554.861714-258.413714H144.091429a31.963429 31.963429 0 0 1-32.036572-31.963429v-35.986285c0-4.388571 3.657143-8.045714 8.045714-8.045715h783.945143c4.388571 0 8.045714 3.657143 8.045715 8.045715v35.986285a31.963429 31.963429 0 0 1-32.036572 31.963429z"  horiz-adv-x="1024" />
      
      <glyph glyph-name="shanchu2" unicode="&#59455;" d="M744.740571 616.740571v-558.592a23.259429 23.259429 0 0 0-23.259428-23.259428H302.518857a23.259429 23.259429 0 0 0-23.259428 23.259428V616.740571h465.481142m69.778286 69.778286H209.481143v-628.297143a93.110857 93.110857 0 0 1 93.037714-93.110857h418.962286a93.110857 93.110857 0 0 1 93.037714 93.037714V686.518857zM430.518857 128a34.889143 34.889143 0 0 0-34.889143 34.889143V442.148571a34.889143 34.889143 0 0 0 69.851429 0v-279.259428a34.889143 34.889143 0 0 0-34.962286-34.889143z m162.962286 0a34.889143 34.889143 0 0 0-34.962286 34.889143V442.148571a34.889143 34.889143 0 0 0 69.851429 0v-279.259428a34.889143 34.889143 0 0 0-34.889143-34.889143z m290.889143 488.740571H139.629714a34.889143 34.889143 0 1 0 0 69.778286h744.740572a34.889143 34.889143 0 0 0 0-69.778286z m-271.140572 116.297143l5.851429-46.518857H404.918857l5.851429 46.592h202.459428m20.48 69.778286H390.290286a46.518857 46.518857 0 0 1-46.518857-40.740572l-17.92-145.408h372.297142L680.009143 762.148571a46.518857 46.518857 0 0 1-46.518857 40.740572h0.219428z"  horiz-adv-x="1024" />
      
      <glyph glyph-name="chakanchengshiditu" unicode="&#59456;" d="M513.901714 847.872c40.594286 0 81.481143-5.485714 120.832-19.748571 41.691429-15.213714 78.482286-38.107429 108.470857-71.021715 30.72-33.645714 51.931429-72.484571 64.219429-116.370285 7.460571-27.062857 11.849143-54.710857 12.873143-82.944 2.121143-58.88-9.801143-115.053714-31.670857-169.618286a673.499429 673.499429 0 0 0-102.619429-172.178286c-19.748571-24.502857-41.106286-47.542857-63.926857-69.412571a717.312 717.312 0 0 0-59.904-51.565715c-8.045714-6.144-16.384-11.995429-24.649143-17.846857a35.328 35.328 0 0 0-40.301714 1.755429c-17.115429 12.580571-33.718857 25.965714-49.956572 39.789714a914.139429 914.139429 0 0 0-63.488 59.392C337.334857 226.011429 296.228571 278.089143 263.68 336.603429c-27.648 50.029714-47.396571 102.765714-55.588571 159.597714a456.704 456.704 0 0 0-3.876572 43.812571 335.213714 335.213714 0 0 0 13.677714 110.006857c11.337143 38.180571 29.988571 72.411429 56.393143 102.4 38.765714 43.958857 87.771429 70.363429 144.018286 84.553143 22.966857 5.851429 46.372571 8.923429 70.070857 10.093715C496.493714 847.725714 504.685714 847.725714 513.901714 847.872zM274.797714 550.619429c-0.219429-22.528 2.925714-47.104 8.484572-71.387429 11.849143-51.638857 34.011429-98.596571 63.049143-142.701714 26.038857-39.716571 56.466286-75.922286 89.453714-109.933715 25.307429-26.112 52.150857-50.614857 80.603428-73.142857 2.121143-1.682286 3.291429-1.828571 5.412572-0.146285a697.490286 697.490286 0 0 1 109.421714 107.52 601.526857 601.526857 0 0 1 91.428572 152.576c21.065143 51.931429 31.451429 105.691429 25.746285 161.865142a245.467429 245.467429 0 0 1-26.331428 90.404572A196.608 196.608 0 0 1 621.714286 757.467429c-32.694857 13.897143-67.145143 18.651429-102.107429 19.748571a353.353143 353.353143 0 0 1-43.593143-1.901714 255.634286 255.634286 0 0 1-83.090285-21.504 190.902857 190.902857 0 0 1-99.474286-102.692572c-13.385143-31.451429-18.724571-64.219429-18.651429-100.498285z m237.787429-630.491429a1452.251429 1452.251429 0 0 0-147.748572 7.094857 1122.742857 1122.742857 0 0 0-132.608 20.699429 628.662857 628.662857 0 0 0-115.2 36.205714 251.757714 251.757714 0 0 0-62.317714 37.083429c-14.774857 12.434286-27.282286 26.989714-34.230857 45.348571-11.044571 29.476571-5.558857 56.466286 12.653714 81.188571 14.262857 19.236571 33.28 33.426286 54.125715 45.056 39.716571 22.089143 82.724571 35.693714 126.756571 46.518858 12.288 2.925714 24.502857 6.290286 37.083429 7.899428a35.181714 35.181714 0 0 0 38.034285-32.182857 34.962286 34.962286 0 0 0-29.842285-37.961143 549.449143 549.449143 0 0 1-114.176-34.669714c-15.579429-6.875429-30.793143-14.628571-44.251429-25.380572a61.878857 61.878857 0 0 1-11.995429-13.019428c-3.876571-5.485714-3.876571-10.825143-0.146285-16.384 5.558857-8.411429 13.385143-14.336 21.504-19.821714 17.773714-12.068571 37.449143-20.626286 57.563428-28.013715 39.716571-14.628571 80.676571-23.917714 122.148572-31.085714 29.257143-5.12 58.733714-8.777143 88.283428-11.629714a1430.162286 1430.162286 0 0 1 243.419429-2.194286c50.249143 3.949714 100.205714 10.313143 149.430857 20.918857a552.228571 552.228571 0 0 1 106.788571 32.475429c17.115429 7.533714 33.645714 16.091429 47.908572 28.525714a52.662857 52.662857 0 0 1 10.752 12.288c2.925714 4.827429 2.56 9.289143-0.292572 14.043429a74.313143 74.313143 0 0 1-21.504 20.260571 259.291429 259.291429 0 0 1-58.221714 28.379429 644.242286 644.242286 0 0 1-78.409143 22.674285 34.962286 34.962286 0 0 0-28.379428 34.084572 34.816 34.816 0 0 0 40.886857 35.401143c32.475429-6.582857 64.365714-15.945143 95.378286-27.501715 22.674286-8.557714 44.690286-18.285714 64.804571-31.963428 17.042286-11.556571 32.841143-24.576 44.324571-41.984 8.996571-13.604571 14.189714-28.525714 14.482286-44.982857 0.438857-21.723429-7.460571-40.374857-20.918857-57.051429-14.774857-18.578286-33.792-31.524571-54.125714-42.934857-38.180571-21.211429-79.213714-34.084571-121.270857-44.617143-38.4-9.581714-77.165714-16.384-116.370286-21.430857-26.477714-3.364571-53.101714-5.997714-79.725714-7.753143-19.894857-1.316571-39.862857-2.194286-59.904-2.925714-14.848-0.585143-29.769143-0.365714-44.617143-0.731429z m-0.512 542.72a79.945143 79.945143 0 0 0-80.237714 80.018286A80.018286 80.018286 0 0 0 511.268571 623.908571a80.457143 80.457143 0 1 0 0.804572-160.914285z"  horiz-adv-x="1024" />
      
      <glyph glyph-name="tubiaomoshi" unicode="&#59457;" d="M130.925714 67.437714V749.714286H73.142857v-746.276572h900.827429v64H130.925714zM691.858286 501.028571H573.001143v-368.201142h118.857143V500.955429z m166.619428 184.685715h-118.857143v-552.96h118.857143v552.96zM525.165714 621.714286H406.381714v-488.886857H525.165714V621.641143z m-168.886857-237.714286H237.568v-251.172571h118.784V383.926857z"  horiz-adv-x="1024" />
      
      <glyph glyph-name="shensemoshi" unicode="&#59458;" d="M533.942857 831.488A336.018286 336.018286 0 1 0 64.585143 362.057143 448 448 0 1 1 534.016 831.414857z m-245.906286-159.451429c17.554286 0 31.963429 14.336 31.963429 31.963429a32.109714 32.109714 0 0 1-32.036571 32.036571h-63.926858v63.926858a32.109714 32.109714 0 0 1-32.036571 32.036571 32.109714 32.109714 0 0 1-32.036571-32.036571v-64h-63.926858a32.109714 32.109714 0 0 1-32.036571-31.963429c0-17.554286 14.409143-32.036571 32.036571-32.036571h64v-63.926858c0-17.627429 14.336-32.036571 31.963429-32.036571 17.554286 0 32.036571 14.409143 32.036571 32.036571v63.926858h63.926858z m128-192.073142H384V512a32.109714 32.109714 0 0 1-32.036571 32.036571 32.109714 32.109714 0 0 1-31.963429-32.036571v-32.036571h-32.036571a32.109714 32.109714 0 0 1-31.963429-31.963429c0-17.554286 14.409143-32.036571 32.036571-32.036571h31.963429V384a32.109714 32.109714 0 0 1 64 0v32.036571h32.036571c17.554286 0 31.963429 14.336 31.963429 31.963429a32.109714 32.109714 0 0 1-32.036571 32.036571z"  horiz-adv-x="1024" />
      
      <glyph glyph-name="xiazai1" unicode="&#59459;" d="M531.821714 181.248c4.022857-5.266286 11.702857-5.266286 15.725715 0l139.702857 181.394286c5.12 6.729143 0.512 16.603429-7.826286 16.603428H586.971429V812.617143A10.166857 10.166857 0 0 1 576.950857 822.857143H502.125714a10.166857 10.166857 0 0 1-9.947428-10.24v-433.298286h-92.16c-8.411429 0-13.019429-9.801143-7.899429-16.457143l139.702857-181.613714z m464.457143 44.836571h-74.898286a10.166857 10.166857 0 0 1-9.947428-10.24v-197.266285H167.936V215.771429a10.166857 10.166857 0 0 1-9.947429 10.24H83.090286A10.166857 10.166857 0 0 1 73.142857 215.771429v-253.513143c0-22.674286 17.846857-40.96 39.936-40.96H966.217143c22.089143 0 39.936 18.285714 39.936 40.96V215.771429a10.166857 10.166857 0 0 1-9.947429 10.24z"  horiz-adv-x="1024" />
      
      <glyph glyph-name="shouqishaixuan" unicode="&#59460;" d="M391.04 655.104a8 8 0 0 1-13.632 4.672l-43.712-43.648-133.696 133.568a8 8 0 0 1-11.328 0l-42.368-42.24a8 8 0 0 1 0-11.328l133.696-133.76-43.904-43.84c-4.672-4.736-1.92-12.8 4.736-13.632l160.192-18.88c5.12-0.64 9.472 3.712 8.896 8.896l-18.944 160.192z m10.048-373.184l-160.32-18.944a8 8 0 0 1-4.672-13.568l43.904-43.904-133.76-133.504a8 8 0 0 1 0-11.328l42.432-42.24a8 8 0 0 1 11.328 0l133.76 133.568 43.648-43.712c4.672-4.672 12.8-1.92 13.568 4.736l18.944 160.064a7.936 7.936 0 0 1-8.832 8.832z m221.824 204.16l160.32 18.944a8 8 0 0 1 4.672 13.568l-43.904 43.776 133.76 133.632a8 8 0 0 1 0 11.328l-42.432 42.24a8 8 0 0 1-11.328 0l-133.76-133.44-43.648 43.648a8 8 0 0 1-13.568-4.672l-18.944-160.128a7.936 7.936 0 0 1 8.832-8.896z m121.088-280.448l43.904 43.84a8 8 0 0 1-4.672 13.632l-160.256 18.88a8 8 0 0 1-8.896-8.896l18.944-160.192c0.768-6.592 8.896-9.408 13.568-4.672l43.712 43.648 133.696-133.568a8 8 0 0 1 11.328 0l42.368 42.24a8 8 0 0 1 0 11.328l-133.696 133.76z"  horiz-adv-x="1024" />
      
      <glyph glyph-name="shezhi" unicode="&#59461;" d="M588.653714 768l11.995429-83.163429 4.827428-34.377142 31.158858-14.409143c12.8-6.363429 26.404571-13.604571 38.4-21.577143l28.013714-18.432 31.232 11.995428 81.554286 32.036572 75.995428-127.195429-67.218286-51.2-28.013714-21.577143 3.218286-35.181714c0.804571-7.241143 0.804571-14.409143 0.804571-20.845714 0-6.363429 0-13.531429-0.731428-20.772572l-3.291429-35.181714 28.013714-21.577143 67.218286-51.2-75.190857-127.195428-82.358857 32.036571-31.232 11.995429-28.013714-18.432c-12.8-8.777143-25.6-16.018286-38.4-21.577143l-31.158858-14.409143-4.827428-33.645714-11.995429-83.894857h-153.6l-11.922285 83.163428-4.827429 34.377143-31.158857 14.409143a362.422857 362.422857 0 0 0-38.4 21.577143l-28.013714 18.432-31.158858-11.995429-81.627428-32.036571-75.995429 127.195428 67.218286 51.2 28.013714 21.577143-3.218285 35.181714c-0.804571 7.241143-0.804571 14.409143-0.804572 20.772572 0 6.436571 0 13.604571 0.731429 20.845714l3.291428 35.108572-28.013714 21.650285-67.218286 51.2 75.190857 127.195429 82.432-32.036572 31.158858-11.995428 28.013714 18.432c12.8 8.777143 25.6 16.018286 38.4 21.577143l31.158857 14.409143 4.827429 33.645714 11.995428 83.894857h153.6m8.777143 64h-171.154286a53.540571 53.540571 0 0 1-53.613714-44.763429L359.862857 694.418286a349.403429 349.403429 0 0 1-47.177143-26.331429l-90.404571 35.108572a53.76 53.76 0 0 1-19.163429 3.218285 51.785143 51.785143 0 0 1-46.445714-26.331428L71.168 535.990857a52.150857 52.150857 0 0 1 12.8-68.022857l75.995429-57.563429c-0.731429-9.508571-1.609143-18.358857-1.609143-26.331428 0-8.045714 0-16.822857 1.609143-26.404572l-75.995429-57.636571a51.858286 51.858286 0 0 1-12.8-68.022857l84.845714-143.140572a54.710857 54.710857 0 0 1 65.536-23.990857l90.404572 35.181715c15.213714-10.386286 31.158857-19.163429 47.177143-26.331429l13.604571-92.013714c3.218286-25.6 26.331429-45.568 53.540571-45.568h171.154286a53.540571 53.540571 0 0 1 53.613714 44.763428l13.604572 92.818286c16.018286 7.168 31.232 15.945143 47.177143 26.331429l90.404571-35.108572a53.76 53.76 0 0 1 19.163429-3.218286 51.785143 51.785143 0 0 1 46.445714 26.331429l85.577143 144.822857a52.004571 52.004571 0 0 1-13.604572 67.145143l-75.995428 57.636571c0.804571 7.972571 1.609143 16.822857 1.609143 26.331429 0 9.654857-0.804571 18.432-1.609143 26.404571l75.995428 57.636572a51.858286 51.858286 0 0 1 12.8 68.022857l-84.845714 143.140571a54.710857 54.710857 0 0 1-65.536 23.990858l-90.404571-35.254858a306.761143 306.761143 0 0 1-47.177143 26.404572l-13.604572 92.013714A53.540571 53.540571 0 0 1 597.577143 832z m-85.577143-319.926857c70.363429 0 128-57.563429 128-128 0-70.363429-57.636571-128-128-128-70.436571 0-128 57.636571-128 128 0 70.436571 57.563429 128 128 128m0 64A192.512 192.512 0 0 1 319.926857 384 192.512 192.512 0 0 1 512 192.146286a192.512 192.512 0 0 1 191.926857 191.926857 192.512 192.512 0 0 1-191.926857 192z"  horiz-adv-x="1024" />
      
      <glyph glyph-name="xinjian" unicode="&#59462;" d="M482.011429 744.009143h59.977142c5.339429 0 8.045714-2.706286 8.045715-8.045714v-703.926858c0-5.339429-2.706286-8.045714-8.045715-8.045714h-59.977142c-5.339429 0-8.045714 2.706286-8.045715 8.045714V735.963429c0 5.339429 2.706286 8.045714 8.045715 8.045714zM175.981714 422.034286h672.036572c5.339429 0 8.045714-2.706286 8.045714-8.045715v-59.977142c0-5.339429-2.706286-8.045714-8.045714-8.045715H175.981714c-5.339429 0-8.045714 2.706286-8.045714 8.045715v59.977142c0 5.339429 2.706286 8.045714 8.045714 8.045715z"  horiz-adv-x="1024" />
      
      <glyph glyph-name="zhankai" unicode="&#59463;" d="M531.748571 362.788571l326.217143 255.268572a15.872 15.872 0 0 1 6.070857 12.653714V708.022857a8.045714 8.045714 0 0 1-12.946285 6.290286L512 448.877714 172.909714 714.313143a8.045714 8.045714 0 0 1-12.873143-6.290286v-77.312c0-4.900571 2.267429-9.581714 6.070858-12.580571l326.070857-255.268572c11.702857-9.142857 27.940571-9.142857 39.497143 0z m0-303.981714l326.217143 255.268572a15.872 15.872 0 0 1 6.070857 12.653714V403.968a8.045714 8.045714 0 0 1-12.946285 6.363429L512 144.822857 172.909714 410.331429a8.045714 8.045714 0 0 1-12.873143-6.363429v-77.238857c0-4.900571 2.267429-9.654857 6.070858-12.653714l326.070857-255.268572c11.702857-9.069714 27.940571-9.069714 39.497143 0z"  horiz-adv-x="1024" />
      
      <glyph glyph-name="zidingyi1" unicode="&#59464;" d="M904.045714 384h-56.027428a8.045714 8.045714 0 0 1-8.045715-8.045714v-319.926857H184.027429V711.972571H503.954286c4.388571 0 7.972571 3.657143 7.972571 8.045715v55.954285a8.045714 8.045714 0 0 1-8.045714 8.045715H144.091429a31.963429 31.963429 0 0 1-32.036572-32.036572V16.091429c0-17.700571 14.336-32.036571 32.036572-32.036572H879.908571a31.963429 31.963429 0 0 1 32.036572 32.036572V375.954286a8.045714 8.045714 0 0 1-8.045714 7.972571zM355.913143 361.106286L354.011429 242.102857a16.091429 16.091429 0 0 1 16.018285-16.164571h0.365715l117.979428 2.925714a8.265143 8.265143 0 0 1 5.412572 2.194286l415.890285 415.085714a8.045714 8.045714 0 0 1 0 11.264l-124.342857 124.196571a8.265143 8.265143 0 0 1-11.410286 0L358.253714 366.665143a8.338286 8.338286 0 0 1-2.267428-5.558857z m63.488-23.625143L779.702857 697.051429l45.202286-45.056-360.521143-359.716572-45.714286-1.097143 0.731429 46.372572z"  horiz-adv-x="1024" />
      
      <glyph glyph-name="zhuzhai-ditudian" unicode="&#59445;" d="M512 896c235.648 0 426.666667-191.018667 426.666667-426.666667 0-199.253333-136.576-366.592-321.237334-413.525333-42.752-86.826667-86.144-142.677333-90.197333-142.677333-3.925333 0-45.013333 52.778667-86.656 135.509333C238.933333 82.602667 85.333333 258.048 85.333333 469.333333 85.333333 704.981333 276.352 896 512 896zM512 469.333333m-365.696 0a365.696 365.696 0 1 1 731.392 0 365.696 365.696 0 1 1-731.392 0ZM716.501333 484.522667l-193.834666 193.706666a15.018667 15.018667 0 0 1-21.333334 0l-193.834666-193.706666a30.165333 30.165333 0 0 1 21.290666-51.413334h20.437334v-138.24c0-8.32 6.698667-15.061333 15.061333-15.061333h117.589333v105.386667h52.736v-105.386667h125.141334a15.061333 15.061333 0 0 1 15.061333 15.061333v138.24h20.394667a30.165333 30.165333 0 0 1 21.290666 51.456z"  horiz-adv-x="1024" />
      
      <glyph glyph-name="jiaoyu-ditudian" unicode="&#59446;" d="M512 896c235.648 0 426.666667-191.018667 426.666667-426.666667 0-199.253333-136.576-366.592-321.237334-413.525333-42.752-86.826667-86.144-142.677333-90.197333-142.677333-3.925333 0-45.013333 52.778667-86.656 135.509333C238.933333 82.602667 85.333333 258.048 85.333333 469.333333 85.333333 704.981333 276.352 896 512 896zM512 469.333333m-365.696 0a365.696 365.696 0 1 1 731.392 0 365.696 365.696 0 1 1-731.392 0ZM512 469.333333c-5.333333 0-13.354667 0-18.688 2.986667l-170.666667 54.058667C306.645333 532.394667 298.666667 547.413333 298.666667 562.389333s7.978667 30.037333 21.333333 36.053334l173.312 54.101333c10.666667 2.986667 26.666667 5.973333 37.333333 0l170.666667-54.058667c16-6.016 24.021333-21.034667 24.021333-36.053333s-8.021333-30.037333-21.333333-36.053333l-173.354667-54.016C525.312 469.333333 517.333333 469.333333 512 469.333333z m87.978667-163.114666H423.978667c-32 0-58.666667 26.666667-58.666667 58.666666v101.333334c0 5.333333 2.645333 8.021333 5.333333 10.666666 2.645333 2.688 7.978667 2.688 10.666667 2.688l128-37.333333c5.333333-2.688 10.666667-2.688 16 0l114.645333 37.333333c5.333333 0 8.021333 0 10.666667-2.688 2.688-2.645333 5.333333-5.333333 5.333333-10.666666v-101.333334c2.688-32-23.978667-58.666667-55.978666-58.666666z m98.688 13.354666c-8.021333 0-13.354667 5.333333-13.354667 13.312v160c0 8.021333 5.333333 13.354667 13.354667 13.354667 7.978667 0 13.312-5.333333 13.312-13.354667v-160c0-7.978667-5.333333-13.312-13.312-13.312z m-21.333334-32a21.333333 21.333333 0 1 1 42.666667 0 21.333333 21.333333 0 0 1-42.666667 0z"  horiz-adv-x="1024" />
      
      <glyph glyph-name="dikuai-ditudian" unicode="&#59447;" d="M512 896c235.648 0 426.666667-191.018667 426.666667-426.666667 0-199.253333-136.576-366.592-321.237334-413.525333-42.752-86.826667-86.144-142.677333-90.197333-142.677333-3.925333 0-45.013333 52.778667-86.656 135.509333C238.933333 82.602667 85.333333 258.048 85.333333 469.333333 85.333333 704.981333 276.352 896 512 896zM512 469.333333m-365.696 0a365.696 365.696 0 1 1 731.392 0 365.696 365.696 0 1 1-731.392 0ZM675.242667 640h-140.970667c-4.096 0-7.424-3.754667-7.424-8.362667v-158.592c0-4.565333 3.328-8.362667 7.424-8.362666h140.970667c4.096 0 7.424 3.797333 7.424 8.362666V631.637333c0 4.608-3.328 8.362667-7.424 8.362667z m0-208.682667h-140.970667c-4.096 0-7.424-3.754667-7.424-8.362666v-158.592c0-4.608 3.328-8.362667 7.424-8.362667h140.970667c4.096 0 7.424 3.754667 7.424 8.362667v158.592c0 4.608-3.328 8.362667-7.424 8.362666zM489.728 640H348.757333C344.661333 640 341.333333 636.245333 341.333333 631.637333v-367.445333c0-4.565333 3.328-8.32 7.424-8.32h140.970667c4.096 0 7.424 3.754667 7.424 8.32V631.637333c0 4.608-3.328 8.362667-7.424 8.362667z"  horiz-adv-x="1024" />
      
      <glyph glyph-name="dikuai1" unicode="&#59448;" d="M464.018286 751.981714H159.963429a16.091429 16.091429 0 0 1-15.945143-15.945143v-704.073142c0-8.777143 7.168-16.018286 15.945143-16.018286h304.054857a16.091429 16.091429 0 0 1 15.945143 16.091428V735.890286a16.091429 16.091429 0 0 1-15.945143 16.091428z m-52.004572-671.524571H211.968V684.032h200.045714v-603.574857z m452.022857 671.524571H559.908571a16.091429 16.091429 0 0 1-15.945142-15.945143v-304.054857c0-8.777143 7.168-15.945143 15.945142-15.945143h304.054858a16.091429 16.091429 0 0 1 15.945142 15.945143V736.036571a16.091429 16.091429 0 0 1-16.018285 15.945143z m-52.004571-267.995428H611.986286V684.032h200.045714v-200.045714z m51.931429-131.949715H560.054857a16.091429 16.091429 0 0 1-15.945143-16.091428v-303.908572c0-8.777143 7.168-16.091429 15.945143-16.091428h304.054857a16.091429 16.091429 0 0 1 15.945143 16.091428V335.945143a16.091429 16.091429 0 0 1-16.018286 15.945143z m-51.931429-268.068571H611.986286V284.013714h200.045714v-200.045714z"  horiz-adv-x="1024" />
      
      <glyph glyph-name="yiliao-ditudian" unicode="&#59449;" d="M512 896c235.648 0 426.666667-191.018667 426.666667-426.666667 0-199.253333-136.576-366.592-321.237334-413.525333-42.752-86.826667-86.144-142.677333-90.197333-142.677333-3.925333 0-45.013333 52.778667-86.656 135.509333C238.933333 82.602667 85.333333 258.048 85.333333 469.333333 85.333333 704.981333 276.352 896 512 896zM512 469.333333m-365.696 0a365.696 365.696 0 1 1 731.392 0 365.696 365.696 0 1 1-731.392 0ZM644.693333 682.666667H379.264c-30.037333 0-50.090667-26.837333-50.090667-59.050667v-246.869333c0-32.213333 20.053333-59.050667 50.090667-59.050667h265.557333c30.037333 0 50.090667 26.88 50.090667 59.050667V623.616C694.826667 655.829333 674.816 682.666667 644.693333 682.666667z m-220.885333-327.082667c-15.018667 0-27.178667 13.056-27.221333 29.184a30.293333 30.293333 0 0 0 7.978666 20.608c5.12 5.461333 12.032 8.533333 19.242667 8.533333 15.018667 0 27.178667-13.056 27.221333-29.141333a30.293333 30.293333 0 0 0-7.978666-20.650667 26.24 26.24 0 0 0-19.2-8.533333z m173.482667 0c-15.018667 0-27.221333 13.056-27.264 29.184a30.293333 30.293333 0 0 0 8.021333 20.608c5.12 5.461333 12.032 8.533333 19.2 8.533333 15.018667 0 27.221333-13.056 27.264-29.141333a30.336 30.336 0 0 0-8.021333-20.650667 26.282667 26.282667 0 0 0-19.2-8.533333zM644.693333 478.72c0-9.216-6.485333-21.461333-15.018666-21.461333H394.24c-8.576 0-15.018667 12.288-15.018667 21.461333V596.778667c0 9.216 6.485333 21.461333 15.018667 21.461333h235.477333c8.576 0 15.018667-12.245333 15.018667-21.461333V478.72z m-215.424-187.861333c0-19.968-12.629333-34.858667-31.274666-34.858667a32.597333 32.597333 0 0 0-23.893334 10.581333 37.674667 37.674667 0 0 0-9.941333 25.6v14.762667h65.109333v-16.085333z m225.450667 0c0-19.968-12.672-34.858667-31.317333-34.858667a32.597333 32.597333 0 0 0-23.893334 10.581333 37.674667 37.674667 0 0 0-9.898666 25.6v14.762667h65.109333v-16.085333z"  horiz-adv-x="1024" />
      
      <glyph glyph-name="yiyuan-ditudian" unicode="&#59450;" d="M512 896c235.648 0 426.666667-191.018667 426.666667-426.666667 0-199.253333-136.576-366.592-321.237334-413.525333-42.752-86.826667-86.144-142.677333-90.197333-142.677333-3.925333 0-45.013333 52.778667-86.656 135.509333C238.933333 82.602667 85.333333 258.048 85.333333 469.333333 85.333333 704.981333 276.352 896 512 896zM512 469.333333m-365.696 0a365.696 365.696 0 1 1 731.392 0 365.696 365.696 0 1 1-731.392 0ZM369.408 569.941333L298.666667 499.2c10.666667-5.973333 17.792-17.066667 17.792-29.952a34.261333 34.261333 0 0 0-17.792-29.866667l70.741333-70.741333a20.266667 20.266667 0 0 1 28.672 0l66.261333 66.218667H391.850667a8.234667 8.234667 0 0 0-8.149334 8.106666V495.36c0 4.437333 3.712 8.106667 8.149334 8.106667H464.64L398.08 569.984a20.266667 20.266667 0 0 1-28.672 0m42.026667-243.2L482.176 256a33.962667 33.962667 0 0 0 59.861333 0l70.698667 70.698667a20.309333 20.309333 0 0 1 0 28.714666l-66.261333 66.218667v-72.661333c0-4.437333-3.669333-8.149333-8.149334-8.149334H485.888a8.234667 8.234667 0 0 0-8.192 8.106667v72.704l-66.261333-65.962667a20.608 20.608 0 0 1 0-28.970666m243.2 42.026666L725.333333 439.466667a33.877333 33.877333 0 0 0-17.792 29.952c0 12.842667 7.210667 23.978667 17.792 29.866666l-70.741333 70.698667a20.266667 20.266667 0 0 1-28.672 0l-66.304-66.218667h72.704c4.48 0 8.192-3.712 8.192-8.149333v-52.181333c0-4.437333-3.712-8.106667-8.192-8.106667h-72.704l66.261333-66.261333a20.053333 20.053333 0 0 1 28.714667-0.298667m-42.026667 243.2L541.824 682.666667a33.962667 33.962667 0 0 0-59.861333 0L411.434667 611.968a20.309333 20.309333 0 0 1 0-28.714667l66.261333-66.218666V589.269333c0 4.394667 3.712 8.106667 8.192 8.106667h52.181333c4.48 0 8.149333-3.712 8.149334-8.106667v-72.704l66.261333 66.517334a20.48 20.48 0 0 1 0.085333 28.885333"  horiz-adv-x="1024" />
      
      <glyph glyph-name="peitao" unicode="&#59451;" d="M832 583.972571h-136.045714v16.091429a184.027429 184.027429 0 0 1-367.908572 0v-16.091429h-136.045714a31.963429 31.963429 0 0 1-32.036571-31.963428v-535.990857c0-17.700571 14.336-32.036571 32.036571-32.036572h640a31.963429 31.963429 0 0 1 32.036571 32.036572V552.009143a31.963429 31.963429 0 0 1-32.036571 31.963428z m-431.981714 16.091429a111.908571 111.908571 0 1 0 223.963428 0v-16.091429H400.091429v16.091429z m392.045714-544.036571H231.936V512h95.963429v-87.990857c0-4.388571 3.657143-8.045714 8.045714-8.045714h55.954286c4.388571 0 8.045714 3.657143 8.045714 8.045714V512H623.908571v-87.990857c0-4.388571 3.657143-8.045714 8.045715-8.045714h55.954285c4.388571 0 8.045714 3.657143 8.045715 8.045714V512h95.963428v-455.972571z"  horiz-adv-x="1024" />
      
      <glyph glyph-name="zhuzhai" unicode="&#59452;" d="M946.468571 391.021714l-386.340571 386.194286-25.892571 25.892571a31.451429 31.451429 0 0 1-44.470858 0L77.531429 391.021714a63.926857 63.926857 0 0 1-18.797715-46.08 64.658286 64.658286 0 0 1 64.877715-63.268571h42.422857v-325.705143h691.931428V281.673143h43.300572a63.634286 63.634286 0 0 1 45.348571 18.797714 63.634286 63.634286 0 0 1 18.651429 45.348572 63.634286 63.634286 0 0 1-18.797715 45.202285z m-378.441142-363.008H455.972571V232.009143h112.054858v-204.068572z m217.892571 325.705143v-325.705143H631.954286V256a40.009143 40.009143 0 0 1-40.009143 40.009143H431.981714a40.009143 40.009143 0 0 1-40.009143-40.009143v-227.986286H238.08V353.718857H142.116571L512 723.382857l23.113143-23.113143 346.843428-346.550857h-96.109714z"  horiz-adv-x="1024" />
      
      <glyph glyph-name="ditudian-1" unicode="&#59443;" d="M512 896a400.695652 400.695652 0 0 0 106.76313-787.010783c-48.172522-115.177739-107.030261-193.313391-111.749565-193.313391-4.808348 0-64.734609 79.649391-113.129739 196.652522A400.695652 400.695652 0 0 0 512 896z m0-222.608696a178.086957 178.086957 0 1 1 0-356.173913 178.086957 178.086957 0 0 1 0 356.173913z"  horiz-adv-x="1024" />
      
      <glyph glyph-name="ditudian-2" unicode="&#59444;" d="M614.803394 31.371636c-42.046061-83.161212-83.316364-136.098909-87.288242-136.098909-4.033939 0-45.862788 53.744485-88.250182 137.960728C233.968485 67.801212 77.575758 246.411636 77.575758 461.575758 77.575758 701.502061 272.073697 896 512 896s434.424242-194.497939 434.424242-434.424242c0-202.845091-139.015758-373.232485-326.997333-421.050182zM509.207273 464.368485m-359.672243 0a359.672242 359.672242 0 1 1 719.344485 0 359.672242 359.672242 0 1 1-719.344485 0ZM491.271758 689.18303l39.222303-395.636363H295.098182l39.253333 395.636363h156.951273z m-21.566061-179.851636H355.855515l-3.537454-35.995152h120.925091l-3.537455 35.995152z m235.582061 0H548.305455l-17.842425 179.851636h156.951273l17.842424-179.851636z m3.568484-35.995152l17.842425-179.820606H569.716364l-17.842425 179.851637h156.951273z"  horiz-adv-x="1024" />
      
      <glyph glyph-name="dikuaizhoubian" unicode="&#59433;" d="M952.027429 422.034286h-122.221715A320.073143 320.073143 0 0 1 550.034286 701.805714V823.954286a8.045714 8.045714 0 0 1-8.045715 8.045714h-59.977142a8.045714 8.045714 0 0 1-8.045715-8.045714v-122.148572A320.073143 320.073143 0 0 1 194.194286 422.034286H72.045714a8.045714 8.045714 0 0 1-8.045714-8.045715v-59.977142c0-4.388571 3.657143-8.045714 8.045714-8.045715h122.148572a320.073143 320.073143 0 0 1 279.771428-279.771428v-122.148572c0-4.388571 3.657143-8.045714 8.045715-8.045714h59.977142c4.388571 0 8.045714 3.657143 8.045715 8.045714v122.148572a320.073143 320.073143 0 0 1 279.771428 279.771428h122.148572c4.388571 0 8.045714 3.657143 8.045714 8.045715v59.977142a8.045714 8.045714 0 0 1-8.045714 8.045715zM512 139.995429a243.931429 243.931429 0 1 0 0 488.009142 243.931429 243.931429 0 1 0 0-488.009142z m0 364.032c-32.109714 0-62.098286-12.434286-84.845714-35.254858-22.674286-22.674286-35.108571-52.662857-35.108572-84.772571 0-32.109714 12.434286-62.098286 35.108572-84.845714a119.588571 119.588571 0 0 1 169.691428 0 119.588571 119.588571 0 0 1 0 169.691428A118.564571 118.564571 0 0 1 512 503.954286z"  horiz-adv-x="1024" />
      
      <glyph glyph-name="dikuaixiangqing" unicode="&#59434;" d="M153.161143 261.558857l133.339428-64.073143 246.564572-119.369143 237.860571 115.2 142.189715 68.096a70.656 70.656 0 0 0-33.060572-93.842285L563.931429 14.482286a70.656 70.656 0 0 0-61.659429 0L186.148571 167.497143a70.656 70.656 0 0 0-32.987428 93.988571zM912.822857 409.453714a70.656 70.656 0 0 0-32.768-94.500571l-316.196571-153.088a70.656 70.656 0 0 0-61.586286 0L186.148571 314.953143a70.656 70.656 0 0 0-34.377142 90.770286L501.76 240.566857l31.232-15.140571 316.123429 153.161143h-0.146286l63.780571 30.866285zM563.931429 742.692571L879.908571 589.531429a70.656 70.656 0 0 0 0-127.268572L563.931429 309.248a70.656 70.656 0 0 0-61.659429 0L186.148571 462.336a70.656 70.656 0 0 0 0 127.268571l316.123429 153.014858a70.656 70.656 0 0 0 61.659429 0z m-30.866286-63.634285L216.941714 525.897143l316.123429-153.088L849.188571 525.897143 533.065143 679.058286z"  horiz-adv-x="1024" />
      
      <glyph glyph-name="ceju1" unicode="&#59435;" d="M151.771429 784.018286h735.744a33.645714 33.645714 0 0 0 33.645714-33.499429V310.125714a33.645714 33.645714 0 0 0-33.645714-33.426285H151.771429a33.645714 33.645714 0 0 0-33.645715 33.426285V750.518857a33.645714 33.645714 0 0 0 33.645715 33.499429z m25.453714-448.585143h121.417143a29.988571 29.988571 0 0 0-1.974857 10.605714V447.268571a29.476571 29.476571 0 0 0 59.099428 0v-101.229714c0-3.657143-0.731429-7.241143-2.048-10.605714H501.76a28.525714 28.525714 0 0 0-2.048 10.605714V528.384c0 16.237714 13.238857 29.403429 29.622857 29.403429 16.310857 0 29.549714-13.165714 29.549714-29.403429v-182.345143c0-3.657143-0.731429-7.241143-2.048-10.605714H705.097143a29.769143 29.769143 0 0 0-2.048 10.605714V453.778286a29.476571 29.476571 0 0 0 59.172571 0V345.965714c0-3.657143-0.731429-7.241143-2.048-10.605714h101.888V725.211429H177.225143v-389.851429zM147.748571 231.277714a29.476571 29.476571 0 0 0 29.549715-29.403428v-66.340572h684.763428V201.874286a29.476571 29.476571 0 0 0 50.468572 20.772571 29.476571 29.476571 0 0 0 8.630857-20.772571v-191.414857a29.476571 29.476571 0 0 0-50.468572-20.845715 29.476571 29.476571 0 0 0-8.630857 20.845715v66.267428H177.225143v-66.267428a29.476571 29.476571 0 1 0-59.099429 0V201.874286c0 16.237714 13.238857 29.403429 29.549715 29.403428z"  horiz-adv-x="1024" />
      
      <glyph glyph-name="xuanzhongdikuai" unicode="&#59436;" d="M526.609067 784.725333a350.071467 350.071467 0 0 0 245.213866-99.328c31.880533-31.197867 57.002667-67.447467 74.5472-107.997866 18.2272-41.984 27.4432-86.6304 27.4432-132.5056 0-66.013867-15.701333-131.549867-46.8992-194.696534a614.673067 614.673067 0 0 0-103.6288-147.592533 833.604267 833.604267 0 0 0-175.854933-142.813867 40.7552 40.7552 0 0 0-41.7792 0 833.604267 833.604267 0 0 0-175.854933 142.813867A616.516267 616.516267 0 0 0 226.167467 250.197333c-30.993067 63.2832-46.762667 128.887467-46.762667 194.7648 0 45.943467 9.284267 90.5216 27.4432 132.573867a339.3536 339.3536 0 0 0 74.615467 107.9296A347.682133 347.682133 0 0 0 391.7824 758.101333a351.709867 351.709867 0 0 0 134.826667 26.624z m0-182.954666a164.2496 164.2496 0 1 1 0-328.567467 164.2496 164.2496 0 0 1 0 328.567467z"  horiz-adv-x="1024" />
      
      <glyph glyph-name="gongjuxiang" unicode="&#59437;" d="M876.617143 656.530286a12.8 12.8 0 0 1-20.114286 2.486857L684.178286 486.692571l-67.876572 67.876572 172.397715 172.397714a12.726857 12.726857 0 0 1-2.486858 19.968 256.365714 256.365714 0 0 1-377.782857-287.012571L115.419429 166.912a7.753143 7.753143 0 0 1 0.292571-10.971429l169.691429-169.691428c3.072-3.145143 8.045714-3.364571 10.971428-0.365714l292.937143 292.937142a256.365714 256.365714 0 0 1 287.305143 377.709715z m-90.624-260.388572a184.32 184.32 0 0 0-214.601143-33.572571l-8.777143-8.777143-0.146286 0.073143-273.993142-274.066286-79.140572 79.213714L439.369143 389.12s0-0.146286 0.146286-0.146286l52.809142 52.809143a184.32 184.32 0 0 0 177.590858 268.141714L537.014857 577.097143a32.036571 32.036571 0 0 1 0-45.348572L661.504 407.405714c12.434286-12.507429 32.768-12.507429 45.348571 0l132.754286 132.754286a184.466286 184.466286 0 0 0-53.613714-143.872z"  horiz-adv-x="1024" />
      
      <glyph glyph-name="ditujieping" unicode="&#59438;" d="M512 512c55.588571 0 107.812571-21.577143 147.090286-60.928 39.277714-39.277714 60.928-91.428571 60.928-147.017143 0-55.588571-21.650286-107.885714-60.928-147.163428A206.555429 206.555429 0 0 0 512 96.036571c-55.588571 0-107.812571 21.577143-147.090286 60.854858a206.555429 206.555429 0 0 0-60.928 147.090285c0 55.588571 21.650286 107.812571 60.928 147.090286A206.555429 206.555429 0 0 0 512 512z m0 64a272.091429 272.091429 0 1 1 0-544.036571 272.091429 272.091429 0 0 1 0 544.036571zM650.898286 768l4.388571-23.625143c11.410286-60.489143 64.365714-104.374857 125.805714-104.374857h114.907429c35.328 0 64-28.672 64-64v-512a64.073143 64.073143 0 0 0-64-64H128a64.073143 64.073143 0 0 0-64 64v512c0 35.328 28.672 64 64 64h114.834286c61.659429 0 114.541714 43.885714 125.805714 104.374857l4.461714 23.625143h277.796572z m39.789714 64H333.312a15.945143 15.945143 0 0 1-15.725714-13.165714l-11.776-62.610286a64 64 0 0 0-62.902857-52.224H128A128 128 0 0 1 0 576v-512c0-70.729143 57.270857-128 128-128h768a128 128 0 0 1 128 128v512a128 128 0 0 1-128 128h-114.834286a64 64 0 0 0-62.902857 52.224l-11.849143 62.683429a15.945143 15.945143 0 0 1-15.725714 13.092571zM224.036571 543.963429h-64.073142a31.963429 31.963429 0 1 0 0 64h64.073142a31.963429 31.963429 0 1 0 0-63.926858zM512 336.091429a32.109714 32.109714 0 0 0 0-64 32.109714 32.109714 0 0 0-32.036571 31.963428c0 17.554286 14.409143 32.036571 32.036571 32.036572z m0 64a96.036571 96.036571 0 1 1 0-192.073143A96.036571 96.036571 0 0 1 512 400.091429z"  horiz-adv-x="1024" />
      
      <glyph glyph-name="zhankaishaixuan1" unicode="&#59439;" d="M531.748571 362.788571l326.217143 255.268572a15.872 15.872 0 0 1 6.070857 12.653714V708.022857a8.045714 8.045714 0 0 1-12.946285 6.290286L512 448.877714 172.909714 714.313143a8.045714 8.045714 0 0 1-12.873143-6.290286v-77.312c0-4.900571 2.267429-9.581714 6.070858-12.580571l326.070857-255.268572c11.702857-9.142857 27.940571-9.142857 39.497143 0z m0-303.981714l326.217143 255.268572a15.872 15.872 0 0 1 6.070857 12.653714V403.968a8.045714 8.045714 0 0 1-12.946285 6.363429L512 144.822857 172.909714 410.331429a8.045714 8.045714 0 0 1-12.873143-6.363429v-77.238857c0-4.900571 2.267429-9.654857 6.070858-12.653714l326.070857-255.268572c11.702857-9.069714 27.940571-9.069714 39.497143 0z"  horiz-adv-x="1024" />
      
      <glyph glyph-name="mianji1" unicode="&#59440;" d="M758.857143 56.466286h-493.714286a26.112 26.112 0 0 0-26.112 26.185143v40.448H203.337143a26.112 26.112 0 0 0-26.112 26.112V625.956571c0 14.482286 11.702857 26.185143 26.112 26.185143h35.693714v60.123429c0 14.482286 11.702857 26.185143 26.112 26.185143h493.714286c14.482286 0 26.112-11.702857 26.112-26.185143v-60.123429h47.908571c14.555429 0 26.185143-11.702857 26.185143-26.185143v-476.672c0-14.482286-11.702857-26.112-26.112-26.112h-47.981714v-40.448a26.112 26.112 0 0 0-26.112-26.258285z m-467.602286 52.297143h441.490286v40.448c0 14.482286 11.702857 26.185143 26.112 26.185142h47.908571V599.771429h-47.908571a26.112 26.112 0 0 0-26.112 26.112V686.08H291.254857v-60.196571c0-14.482286-11.702857-26.112-26.112-26.112h-35.620571v-424.374858h35.620571c14.482286 0 26.112-11.702857 26.112-26.185142v-40.448zM265.142857 118.272a26.258286 26.258286 0 0 0-18.505143 44.617143l493.787429 493.860571a26.258286 26.258286 0 0 0 37.010286-37.010285L283.794286 125.805714a26.331429 26.331429 0 0 0-18.578286-7.606857zM265.142857-6.582857H135.460571a26.112 26.112 0 0 0-26.112 26.185143v129.682285c0 14.482286 11.702857 26.185143 26.112 26.185143h129.682286c14.482286 0 26.112-11.702857 26.112-26.185143v-129.536c0-14.628571-11.702857-26.331429-26.112-26.331428z m-103.424 52.370286h77.312v77.312H161.645714v-77.312z m294.765714 11.483428a26.258286 26.258286 0 0 0-18.505142 44.617143l366.299428 366.299429a26.258286 26.258286 0 0 0 37.010286-37.010286l-366.299429-366.299429a26.331429 26.331429 0 0 0-18.505143-7.606857zM206.116571 337.554286a26.258286 26.258286 0 0 0-18.505142 44.617143L516.388571 711.094857a26.258286 26.258286 0 0 0 37.010286-37.010286L224.548571 345.234286a25.746286 25.746286 0 0 0-18.432-7.68z m59.026286 262.217143H135.460571a26.112 26.112 0 0 0-26.112 26.112V755.565714c0 14.482286 11.702857 26.112 26.112 26.112h129.682286c14.482286 0 26.112-11.702857 26.112-26.112v-129.609143c0-14.482286-11.702857-26.185143-26.112-26.185142z m-103.424 52.370285h77.312V729.453714H161.645714v-77.312z m726.820572-52.370285h-129.682286a26.112 26.112 0 0 0-26.112 26.112V755.565714c0 14.482286 11.702857 26.112 26.112 26.112h129.609143c14.482286 0 26.112-11.702857 26.112-26.112v-129.609143a26.112 26.112 0 0 0-26.038857-26.185142z m-103.424 52.370285h77.312V729.453714h-77.312v-77.312z m103.424-658.651428h-129.682286a26.112 26.112 0 0 0-26.112 26.112v129.682285c0 14.482286 11.702857 26.185143 26.112 26.185143h129.609143c14.482286 0 26.112-11.702857 26.112-26.185143v-129.536c0.073143-14.628571-11.702857-26.331429-26.038857-26.331428z m-103.424 52.297143h77.312v77.312h-77.312v-77.312z"  horiz-adv-x="1024" />
      
      <glyph glyph-name="zidingyi" unicode="&#59441;" d="M93.110857 463.140571c18.578286 0 37.229714 18.578286 37.229714 37.229715V714.459429c0 32.621714 23.259429 55.881143 55.808 55.881142H395.702857c18.651429 0 37.302857 18.578286 37.302857 37.229715 0 18.578286-18.651429 37.229714-37.302857 37.229714H186.148571C116.370286 844.8 55.881143 784.310857 55.881143 714.459429v-214.089143c0-18.651429 13.897143-37.302857 37.229714-37.302857z m302.518857-470.089142H181.540571a53.76 53.76 0 0 0-55.881142 55.808V258.340571c0 18.578286-18.578286 37.229714-37.229715 37.229715-18.578286 0-37.229714-18.651429-37.229714-37.302857v-209.408c0-69.778286 60.489143-130.340571 130.340571-130.340572h214.089143c18.651429 0 37.302857 18.651429 37.302857 37.302857 0 18.578286-18.651429 37.229714-37.302857 37.229715z m539.940572 302.518857c-18.651429 0-37.302857-18.651429-37.302857-37.302857v-209.408a53.76 53.76 0 0 0-55.808-55.808H633.051429c-18.651429 0-37.302857-18.651429-37.302858-37.302858 0-18.578286 18.651429-37.229714 37.302858-37.229714h209.408c69.851429 0 130.340571 60.562286 130.340571 130.340572V258.340571c0 23.259429-13.897143 37.229714-37.302857 37.229715zM842.459429 844.8H633.051429c-18.651429 0-37.302857-18.651429-37.302858-37.302857 0-18.578286 18.651429-37.156571 37.302858-37.156572h209.408c32.621714 0 55.881143-23.259429 55.881142-55.881142v-209.408c0-18.651429 18.578286-37.302857 37.229715-37.302858 18.578286 0 37.229714 18.651429 37.229714 37.302858V714.459429C972.8 788.918857 916.918857 844.8 842.459429 844.8z m-46.518858-502.710857V416.548571h-242.102857v242.102858H479.524571v-242.102858h-242.102857v-74.459428h242.102857v-242.029714h74.459429v242.102857h242.029714z"  horiz-adv-x="1024" />
      
      <glyph glyph-name="kuangxuanzhaodi" unicode="&#59442;" d="M320.036343-32.035909c5.851424 0 10.67885-4.754282 10.678849-10.605706v-74.678804c0-5.851424-4.754282-10.67885-10.678849-10.67885h-74.605661a10.67885 10.67885 0 0 0-10.751992 10.67885v74.605661c0 5.924567 4.827425 10.67885 10.678849 10.678849h74.678804z m-234.642118 0c5.851424 0 10.605707-4.754282 10.605706-10.605706v-74.678804a10.67885 10.67885 0 0 0-10.605706-10.67885H10.715421A10.67885 10.67885 0 0 0 0.036571-117.320419v74.605661c0 5.924567 4.754282 10.67885 10.67885 10.678849h74.605661z m373.759733 472.356234l536.356188-199.826142-196.242145-76.068518 222.354126-222.280984c2.486855-2.559998 2.779427-6.655995 1.024-10.239992l-2.486856-3.510855-52.809105-52.809105a10.971421 10.971421 0 0 0-10.751992-3.145141l-2.925712 1.82857-231.716406 231.570121-100.863928-214.60099L459.153958 440.320325z m-373.759733-240.274114c5.851424 0 10.605707-4.827425 10.605706-10.678849v-74.678804c0-5.851424-4.754282-10.67885-10.605706-10.678849H10.715421A10.67885 10.67885 0 0 0 0.036571 114.688558v74.605661c0 5.924567 4.754282 10.751992 10.67885 10.751992h74.605661z m0 232.008978c5.851424 0 10.67885-4.900568 10.678849-10.67885v-74.605661a10.67885 10.67885 0 0 0-10.678849-10.825135H10.715421A10.67885 10.67885 0 0 0 0.036571 346.697535v74.605661c0 5.851424 4.754282 10.751992 10.67885 10.751993h74.605661z m927.962765 231.862691c5.851424 0 10.67885-4.827425 10.67885-10.678849V578.560227c0-5.851424-4.754282-10.67885-10.67885-10.67885h-74.605661a10.67885 10.67885 0 0 0-10.678849 10.67885V653.165888c0 5.924567 4.754282 10.751992 10.605707 10.751992h74.678803z m-927.962765 0c5.851424 0 10.605707-4.68114 10.605706-10.605707v-74.605661c0-5.924567-4.754282-10.751992-10.605706-10.751992H10.715421A10.67885 10.67885 0 0 0 0.036571 578.63337V653.312173c0 5.851424 4.754282 10.67885 10.67885 10.67885h74.605661zM317.403202 896c5.851424 0 10.67885-4.754282 10.678849-10.67885v-74.605661c0-5.924567-4.827425-10.751992-10.678849-10.751992H242.724398a10.67885 10.67885 0 0 0-10.678849 10.67885V885.32115c0 5.851424 4.754282 10.67885 10.678849 10.67885h74.605661z m695.953788 0c5.851424 0 10.67885-4.754282 10.67885-10.67885v-74.605661c0-5.924567-4.754282-10.751992-10.67885-10.751992h-74.605661a10.67885 10.67885 0 0 0-10.678849 10.67885V885.32115c0 5.851424 4.754282 10.67885 10.605707 10.67885h74.678803zM85.394225 896c5.851424 0 10.605707-4.754282 10.605706-10.67885v-74.605661c0-5.924567-4.754282-10.751992-10.605706-10.751992H10.715421A10.67885 10.67885 0 0 0 0.036571 810.642347V885.32115C0.036571 891.172575 4.790854 896 10.715421 896h74.605661zM549.339036 896c5.851424 0 10.67885-4.754282 10.67885-10.67885v-74.605661c0-5.924567-4.754282-10.751992-10.67885-10.751992h-74.605661a10.67885 10.67885 0 0 0-10.751992 10.67885V885.32115c0 5.851424 4.827425 10.67885 10.678849 10.67885h74.678804z m231.935835 0c5.851424 0 10.67885-4.754282 10.678849-10.67885v-74.605661c0-5.924567-4.754282-10.751992-10.678849-10.751992h-74.605661a10.67885 10.67885 0 0 0-10.751993 10.67885V885.32115c0 5.851424 4.827425 10.67885 10.67885 10.67885h74.678804z"  horiz-adv-x="1024" />
      
      <glyph glyph-name="biaoshuziliao1" unicode="&#59403;" d="M452.096 782.222222c34.986667 0 65.308444-24.291556 72.874667-58.481778l3.640889-16.156444h306.972444c41.187556 0 74.638222-33.450667 74.638222-74.695111v-522.695111c0-41.187556-33.450667-74.638222-74.695111-74.638222H188.472889A74.695111 74.695111 0 0 0 113.777778 110.250667v597.333333C113.777778 748.771556 147.228444 782.222222 188.472889 782.222222h263.623111z m333.653333-522.695111H238.250667V184.888889h547.612444v74.695111z m49.834667 373.361778H545.109333l11.093334-49.777778h279.324444v49.777778z"  horiz-adv-x="1024" />
      
      <glyph glyph-name="biaoge2" unicode="&#59404;" d="M876.657778 129.991111h0.398222v2.332445zM388.494222 782.222222H172.657778C140.231111 782.222222 113.777778 758.442667 113.777778 729.258667v-194.275556c0-29.184 26.396444-52.906667 58.88-52.906667h215.836444c32.426667 0 58.823111 23.722667 58.823111 52.906667V729.315556C447.317333 758.442667 420.977778 782.222222 388.551111 782.222222m-5.233778-235.235555c0-1.308444-1.251556-2.446222-2.730666-2.446223H184.718222c-1.479111 0-2.787556 1.137778-2.787555 2.446223V723.057778c0 1.365333 1.251556 2.446222 2.787555 2.446222h195.811556c1.536 0 2.730667-1.080889 2.730666-2.446222v-176.014222zM172.657778 331.946667c-32.426667 0-58.88-23.836444-58.88-53.020445v-194.218666c0-29.240889 26.396444-52.963556 58.88-52.963556h215.836444c32.426667 0 58.823111 23.722667 58.823111 52.906667v194.275555c0 29.184-26.396444 53.020444-58.823111 53.020445H172.657778z m210.602666-237.283556c0-1.365333-1.251556-2.503111-2.730666-2.503111H179.029333c-1.479111 0-2.787556 1.137778-2.787555 2.503111v175.388445c0 1.365333 1.251556 2.503111 2.787555 2.503111h201.500445c1.536 0 2.730667-1.137778 2.730666-2.503111v-175.388445zM567.296 713.216H568.888889a3.982222 3.982222 0 0 1 1.137778 0h313.287111l0.568889-0.056889a3.413333 3.413333 0 0 1 0.568889 0h1.251555a3.185778 3.185778 0 0 1 1.820445 0.682667c10.24 2.048 22.755556 15.36 22.755555 33.848889 0 18.545778-12.288 31.288889-22.300444 33.564444a3.470222 3.470222 0 0 1-2.275556 0.967111H567.296a3.185778 3.185778 0 0 1-2.104889-1.024c-9.898667-2.275556-22.584889-11.036444-22.584889-33.564444 0-22.471111 12.686222-31.288889 22.528-33.621334 0.625778-0.512 1.365333-0.796444 2.161778-0.796444zM567.296 468.138667H568.888889a3.982222 3.982222 0 0 1 1.137778 0h313.287111l0.568889-0.056889a3.413333 3.413333 0 0 1 0.568889 0.056889h1.251555a3.185778 3.185778 0 0 1 1.820445 0.568889c10.24 2.104889 22.755556 15.36 22.755555 33.905777 0 18.545778-12.288 31.345778-22.300444 33.621334a3.470222 3.470222 0 0 1-2.275556 0.910222H567.296a3.185778 3.185778 0 0 1-2.104889-0.967111c-9.898667-2.389333-22.584889-11.036444-22.584889-33.564445 0-22.471111 12.686222-31.288889 22.528-33.678222 0.625778-0.455111 1.365333-0.796444 2.161778-0.796444zM567.296 256.967111H568.888889a3.982222 3.982222 0 0 1 1.137778 0h313.287111l0.568889-0.056889a3.413333 3.413333 0 0 1 0.568889 0h1.251555a3.185778 3.185778 0 0 1 1.820445 0.625778c10.24 2.104889 22.755556 15.36 22.755555 33.905778 0 18.488889-12.288 31.288889-22.300444 33.564444a3.470222 3.470222 0 0 1-2.275556 0.967111H567.296a3.185778 3.185778 0 0 1-2.104889-1.024c-9.898667-2.332444-22.584889-11.036444-22.584889-33.564444 0-22.471111 12.686222-31.288889 22.528-33.621333 0.625778-0.512 1.365333-0.796444 2.161778-0.796445zM567.296 39.253333H568.888889a3.982222 3.982222 0 0 1 1.137778 0H883.825778a3.413333 3.413333 0 0 1 0.568889 0h1.251555a3.185778 3.185778 0 0 1 1.820445 0.625778c10.24 2.104889 22.755556 15.36 22.755555 33.905778 0 18.488889-12.288 31.288889-22.300444 33.564444a3.470222 3.470222 0 0 1-2.275556 0.967111H567.296a3.185778 3.185778 0 0 1-2.104889-1.024c-9.898667-2.332444-22.584889-11.036444-22.584889-33.564444 0-22.471111 12.686222-31.288889 22.528-33.621333 0.625778-0.512 1.365333-0.796444 2.161778-0.796445z"  horiz-adv-x="1024" />
      
      <glyph glyph-name="chengjiaoloubanjia" unicode="&#59405;" d="M911.506286 195.291429a8.045714 8.045714 0 0 1-10.24 4.827428l-61.293715-22.308571V715.995429a67.949714 67.949714 0 0 1-68.022857 68.022857H252.050286a67.949714 67.949714 0 0 1-68.022857-68.022857v-538.185143l-61.220572 22.308571a8.557714 8.557714 0 0 1-2.706286 0.512 8.045714 8.045714 0 0 1-8.045714-8.045714v-59.611429a8.045714 8.045714 0 0 1 5.339429-7.460571l383.707428-139.629714a31.744 31.744 0 0 1 21.869715 0l383.780571 139.483428a8.045714 8.045714 0 0 1 5.339429 7.533714v59.611429a8.704 8.704 0 0 1-0.512 2.779429zM512 58.514286l-256 93.110857V711.972571h512v-560.347428L512 58.514286z m148.626286 525.458285h-54.491429a7.899429 7.899429 0 0 1-7.168-4.388571L514.267429 410.770286h-3.291429L426.276571 579.584a8.045714 8.045714 0 0 1-7.094857 4.388571H363.52a7.460571 7.460571 0 0 1-3.803429-0.950857 7.972571 7.972571 0 0 1-3.218285-10.825143l103.862857-191.634285h-56.978286a8.045714 8.045714 0 0 1-8.045714-7.972572v-27.062857c0-4.388571 3.657143-8.045714 8.045714-8.045714h76.068572v-38.985143h-76.068572a8.045714 8.045714 0 0 1-8.045714-8.045714v-27.062857c0-4.388571 3.657143-8.045714 8.045714-8.045715h76.068572v-63.341714c0-4.388571 3.584-8.045714 7.972571-8.045714h49.883429c4.388571 0 8.045714 3.657143 8.045714 8.045714v63.488h76.214857c4.388571 0 8.045714 3.657143 8.045714 8.045714v27.062857a8.045714 8.045714 0 0 1-8.045714 8.045715H545.28v38.985143h76.288c4.388571 0 8.045714 3.584 8.045714 7.972571v27.062857a8.045714 8.045714 0 0 1-8.045714 8.045714h-57.563429l103.716572 191.634286a8.630857 8.630857 0 0 1 0.950857 3.730286 8.192 8.192 0 0 1-8.045714 7.899428z"  horiz-adv-x="1024" />
      
      <glyph glyph-name="daochu1" unicode="&#59406;" d="M467.529143 135.826286c4.022857-5.193143 11.702857-5.193143 15.725714 0l139.702857 181.467428c5.12 6.729143 0.512 16.530286-7.826285 16.530286H522.678857V767.268571a10.166857 10.166857 0 0 1-9.947428 10.24H437.833143a10.166857 10.166857 0 0 1-9.947429-10.24v-433.298285H335.725714c-8.411429 0-13.019429-9.874286-7.899428-16.530286l139.702857-181.613714z m464.457143 44.836571h-74.898286a10.166857 10.166857 0 0 1-9.947429-10.24v-197.193143H103.643429V170.422857a10.166857 10.166857 0 0 1-9.947429 10.24H18.870857a10.166857 10.166857 0 0 1-10.020571-10.24v-253.586286c0-22.674286 17.846857-40.96 39.936-40.96h853.211428c22.089143 0 39.936 18.285714 39.936 40.96V170.422857a10.166857 10.166857 0 0 1-9.947428 10.24z"  horiz-adv-x="1024" />
      
      <glyph glyph-name="chengshixuanze" unicode="&#59407;" d="M856.941714 510.025143c-0.585143-52.004571-17.188571-99.474286-39.570285-145.408-33.645714-68.754286-78.262857-130.194286-126.756572-189.001143a1674.971429 1674.971429 0 0 0-145.334857-154.916571c-18.066286-16.969143-34.523429-17.481143-53.028571-0.804572-95.963429 86.089143-182.125714 180.443429-247.954286 292.059429a504.685714 504.685714 0 0 0-28.745143 56.32c-7.972571 18.358857-1.097143 37.595429 16.018286 45.494857a33.499429 33.499429 0 0 0 45.202285-17.188572c39.350857-85.504 96.841143-158.134857 159.670858-227.108571 24.283429-26.550857 49.664-52.004571 75.922285-76.580571 3.291429-2.998857 5.339429-5.485714 9.947429-0.877715 87.04 87.771429 168.667429 179.931429 228.059428 289.499429 17.261714 31.963429 31.744 65.316571 36.571429 101.668571 7.314286 54.857143-3.730286 107.008-29.769143 155.062857C707.657143 729.965714 630.784 782.116571 525.897143 785.846857c-119.515429 4.169143-225.718857-72.996571-263.314286-187.026286-9.508571-28.598857-14.482286-57.929143-14.848-88.137142-0.292571-21.577143-14.409143-36.790857-33.865143-36.717715-19.602286 0-33.865143 15.652571-33.792 36.864A344.722286 344.722286 0 0 0 446.537143 846.043429c128.804571 29.769143 266.752-23.771429 344.722286-133.632a351.817143 351.817143 0 0 0 65.682285-202.386286zM136.996571-25.6h761.563429c0 4.388571-2.925714 7.241143-4.754286 10.459429l-99.328 174.006857c-7.168 12.434286-7.606857 24.868571 0.365715 36.864a32.182857 32.182857 0 0 0 30.573714 15.213714c11.702857-0.804571 20.918857-6.582857 26.697143-16.676571 45.348571-78.994286 90.697143-157.988571 135.460571-237.202286 13.897143-24.502857-3.291429-50.614857-32.402286-50.614857H500.443429c-138.532571 0-277.065143 0.658286-415.597715-0.585143-31.085714-0.292571-50.176 28.16-33.060571 56.905143 44.690286 75.264 87.186286 151.771429 130.633143 227.84 9.362286 16.310857 23.990857 23.552 39.350857 19.529143 22.674286-5.851429 32.475429-29.988571 20.48-51.2-23.186286-40.96-46.738286-81.773714-70.070857-122.733715l-35.181715-61.805714z m516.754286 541.257143A135.606857 135.606857 0 0 0 517.851429 380.196571 135.314286 135.314286 0 1 0 653.750857 515.657143z m-134.948571 67.584a67.876571 67.876571 0 0 1-68.022857-67.510857 67.876571 67.876571 0 0 1 68.827428-67.803429 68.022857 68.022857 0 0 1 66.56 68.022857 67.876571 67.876571 0 0 1-67.291428 67.291429h-0.073143z"  horiz-adv-x="1024" />
      
      <glyph glyph-name="dikuaipinggu" unicode="&#59408;" d="M431.981714 768c41.984 0 76.068571-34.011429 76.068572-76.068571v-658.578286a76.068571 76.068571 0 0 0-76.068572-76.068572H204.068571a76.068571 76.068571 0 0 0-75.995428 76.068572V691.931429c0 41.984 34.011429 75.995429 76.068571 75.995428h227.913143z m430.665143-430.665143c41.984 0 76.068571-34.011429 76.068572-76.068571v-227.913143a76.068571 76.068571 0 0 0-76.068572-76.068572H634.660571a76.068571 76.068571 0 0 0-75.995428 76.068572V261.339429c0 41.984 34.011429 75.995429 76.068571 75.995428h227.913143zM431.981714 692.004571H204.068571v-658.651428h227.986286V691.931429z m430.665143-430.665142H634.660571v-227.986286h227.986286V261.339429z m0 506.660571c41.984 0 76.068571-34.011429 76.068572-76.068571v-227.913143a76.068571 76.068571 0 0 0-76.068572-76.068572H634.660571a76.068571 76.068571 0 0 0-75.995428 76.068572V691.931429c0 41.984 34.011429 75.995429 76.068571 75.995428h227.913143z m0-76.068571H634.660571v-227.913143h227.986286V691.931429z"  horiz-adv-x="1024" />
      
      <glyph glyph-name="ditugongju" unicode="&#59409;" d="M121.002667 268.401778l140.344889-67.356445 259.584-125.724444 250.311111 121.230222 149.617777 71.68a74.410667 74.410667 0 0 0-34.816-98.759111l-332.686222-161.109333c-20.48-9.955556-44.373333-9.955556-64.853333 0l-332.8 161.109333a74.410667 74.410667 0 0 0-34.702222 98.929778z m799.573333 155.704889a74.410667 74.410667 0 0 0-34.531556-99.441778l-332.743111-161.166222c-20.48-9.898667-44.373333-9.898667-64.853333 0l-332.686222 161.166222A74.410667 74.410667 0 0 0 119.466667 420.181333l368.469333-173.852444 32.938667-15.928889 332.686222 161.166222-0.170667 0.056889 67.128889 32.426667zM553.358222 774.826667l332.686222-161.166223a74.410667 74.410667 0 0 0 0-133.859555L553.358222 318.577778c-20.48-9.898667-44.373333-9.898667-64.853333 0l-332.8 161.166222a74.410667 74.410667 0 0 0 0 133.859556l332.8 161.109333c20.48 9.955556 44.373333 9.955556 64.853333 0z"  horiz-adv-x="1024" />
      
      <glyph glyph-name="duibi" unicode="&#59410;" d="M145.481143 98.889143h244.297143v-81.408H64.073143V750.445714H389.851429v-81.408H145.481143v-570.221714z m448 0h81.408v-81.408H593.481143v81.408z m122.148571 0h81.481143v-81.408H715.629714v81.408z m122.148572-81.408v81.408h81.481143v-81.408h-81.408z m0 285.037714V384h81.481143v-81.481143h-81.408z m0-122.148571V261.851429h81.481143v-81.481143h-81.408z m0 244.297143V506.148571h81.481143v-81.408h-81.408z m0 122.221714V628.370286h81.481143v-81.481143h-81.408z m0 122.148571V750.592h81.481143v-81.408h-81.408z m-40.667429 0H715.629714V750.592h81.481143v-81.408z m-122.148571 0H593.408V750.592h81.408v-81.408zM471.186286 832.073143h81.481143v-896H471.259429V832z"  horiz-adv-x="1024" />
      
      <glyph glyph-name="dikuaisousuo1" unicode="&#59411;" d="M910.222222 508.472889v-347.136l-0.113778 4.664889A174.193778 174.193778 0 1 1 735.800889-14.222222H188.472889A74.695111 74.695111 0 0 0 113.777778 60.472889V508.416h796.444444z m-179.2-224.028445a119.466667 119.466667 0 0 0 103.253334-179.598222l71.68-71.68-42.268445-42.268444-71.452444 71.452444a119.466667 119.466667 0 1 0-61.212445 222.094222z m0-74.695111a44.771556 44.771556 0 1 1 0-89.543111 44.771556 44.771556 0 0 1 0 89.6zM462.222222 458.752h-199.111111V384h199.111111V458.695111zM770.389333 782.222222c28.273778 0 54.158222-15.928889 66.787556-41.244444l65.137778-130.275556c4.323556-8.647111 6.940444-17.976889 7.68-27.591111H114.688c1.137778 7.111111 3.413333 14.051556 6.485333 20.536889L187.164444 740.124444C199.566222 765.838222 225.678222 782.222222 254.293333 782.222222h516.039111z"  horiz-adv-x="1024" />
      
      <glyph glyph-name="fangchanshichangtongji1" unicode="&#59412;" d="M584.590222 725.617778v-699.164445h51.598222V558.876444l167.537778-58.936888c14.791111-9.671111 24.177778-25.6 25.6-43.008l0.113778-4.380445v-425.984h56.661333v-74.183111H113.777778v74.183111h56.32l0.056889 567.239111c0 19.512889 10.069333 37.546667 26.567111 47.957334l301.397333 131.868444a56.547556 56.547556 0 0 0 86.471111-47.957333zM460.117333 396.458667L294.684444 328.248889v-80.213333l165.432889 68.266666V396.515556z m0 175.445333L294.684444 501.532444v-80.611555l165.432889 70.428444V571.904z"  horiz-adv-x="1024" />
      
      <glyph glyph-name="qiehuan" unicode="&#59413;" d="M310.72 406.72a32.128 32.128 0 1 0-45.44-45.44l-128 128a32 32 0 0 0 0 45.44l128 128a32.128 32.128 0 0 0 45.44-45.44L205.12 512l105.6-105.28zM160 480a32 32 0 0 0 0 64h384a32 32 0 0 0 0-64h-384z m553.28-118.72a32.128 32.128 0 1 0 45.44 45.44l128-128a32 32 0 0 0 0-45.44l-128-128a32.128 32.128 0 1 0-45.44 45.44L818.88 256l-105.6 105.28zM864 288a32 32 0 1 0 0-64h-384a32 32 0 1 0 0 64h384z"  horiz-adv-x="1024" />
      
      <glyph glyph-name="qiansemoshi" unicode="&#59414;" d="M269.970286 698.733714L186.221714 783.286857l-69.851428-70.436571L200.192 628.297143l69.778286 70.436571zM139.702857 431.030857H0v-93.988571h139.629714V431.030857zM558.518857 896H465.481143v-136.192h93.037714V896z m349.110857-183.149714l-69.851428 70.436571-83.748572-84.553143 65.097143-65.828571 88.502857 79.945143z m-153.6-643.584l83.748572-84.48 65.243428 65.682285-83.821714 84.553143-65.170286-65.755428z m130.340572 267.776H1024V431.030857h-139.702857v-93.988571zM512 665.892571c-153.6 0-279.332571-126.902857-279.332571-281.819428 0-155.062857 125.659429-281.819429 279.259428-281.819429S791.405714 229.083429 791.405714 384C791.332571 538.989714 665.6 665.892571 512 665.892571M465.481143-128h93.037714v136.265143H465.481143V-128zM116.297143 55.222857l69.851428-70.436571 83.748572 84.48-65.097143 65.828571-88.502857-79.872z"  horiz-adv-x="1024" />
      
      <glyph glyph-name="rili1" unicode="&#59415;" d="M890.140444 750.364444h-43.406222v12.856889c0 38.684444-31.459556 70.257778-69.916444 70.257778h-1.024c-38.456889 0-69.973333-31.630222-69.973334-70.257778v-12.913777H319.146667v12.913777c0 38.684444-31.459556 70.257778-69.916445 70.257778h-1.080889c-38.456889 0-69.916444-31.630222-69.916444-70.257778v-12.913777h-43.235556c-38.513778 0-69.973333-31.573333-69.973333-70.200889v-671.459556c0-38.627556 31.459556-70.200889 69.973333-70.200889h755.143111c38.456889 0 69.916444 31.573333 69.916445 70.200889V680.106667c0 38.627556-31.459556 70.200889-69.973333 70.200889z m-156.330666 12.856889c0 23.210667 18.773333 42.097778 41.984 42.097778h1.024a42.097778 42.097778 0 0 0 41.927111-42.097778V638.293333a42.097778 42.097778 0 0 0-41.927111-42.097777h-1.024a42.097778 42.097778 0 0 0-41.984 42.097777V763.221333z m-527.587556 0c0 23.210667 18.773333 42.097778 41.984 42.097778h1.024a42.097778 42.097778 0 0 0 41.984-42.097778V638.293333a42.097778 42.097778 0 0 0-41.984-42.097777h-1.024a42.097778 42.097778 0 0 0-41.984 42.097777V763.221333z m683.918222-768.625777H134.940444a14.222222 14.222222 0 0 0-13.994666 14.051555V502.328889h783.189333v-493.681778a14.222222 14.222222 0 0 0-13.994667-14.051555zM223.744 401.806222h129.024v-63.488H223.744V401.806222z m225.28 0h128v-63.488h-128V401.806222z m224.256 0h125.952v-63.488h-125.952V401.806222z m-449.536-129.024h129.024v-62.464H223.744v62.464z m225.28 0h128v-62.464h-128v62.464z m224.256 0h125.952v-62.464h-125.952v62.464zM223.744 146.773333h129.024v-65.536H223.744V146.773333z m225.28 0h128v-65.536h-128V146.773333z m224.256 0h125.952v-65.536h-125.952V146.773333z"  horiz-adv-x="1024" />
      
      <glyph glyph-name="riqi" unicode="&#59416;" d="M155.428571 768h74.166858v-82.285714H155.428571V548.571429h713.142858V685.714286h-70.948572V768h70.948572c45.421714 0 82.285714-36.864 82.285714-82.285714v-658.285715c0-45.421714-36.864-82.285714-82.285714-82.285714h-713.142858A82.285714 82.285714 0 0 0 73.142857 27.428571v658.285715c0 45.421714 36.864 82.285714 82.285714 82.285714z m713.142858-301.714286h-713.142858v-438.857143h713.142858v438.857143zM374.857143 219.428571v-82.285714H237.714286V219.428571h137.142857z m205.750857 0v-82.285714H443.392V219.428571h137.216z m205.677714 0v-82.285714H649.142857V219.428571h137.142857zM374.857143 384v-82.285714H237.714286V384h137.142857z m205.750857 0v-82.285714H443.392V384h137.216z m205.677714 0v-82.285714H649.142857V384h137.142857z m-35.474285 438.857143v-137.142857H668.452571V822.857143h82.358858z m-133.924572-54.857143v-82.285714H410.331429V768h206.555428zM363.52 822.857143v-137.142857H281.307429V822.857143H363.52z"  horiz-adv-x="1024" />
      
      <glyph glyph-name="shoucang2" unicode="&#59417;" d="M908.068571 542.866286l-253.805714 36.937143-113.590857 230.107428a32.182857 32.182857 0 0 1-57.417143 0L369.883429 579.803429l-253.878858-36.937143a31.963429 31.963429 0 0 1-17.700571-54.564572l183.661714-179.126857-43.373714-252.854857a31.963429 31.963429 0 0 1 46.372571-33.645714L512 141.897143l227.108571-119.369143a31.963429 31.963429 0 0 1 46.372572 33.645714l-43.373714 252.928 183.661714 179.126857a31.963429 31.963429 0 0 1-17.700572 54.564572zM664.868571 334.409143l36.132572-210.285714L512 223.305143l-188.928-99.328 36.132571 210.358857-152.868571 148.992 211.236571 30.72L512 705.243429l94.354286-191.341715 211.236571-30.72L664.868571 334.482286z"  horiz-adv-x="1024" />
      
      <glyph glyph-name="shouye1" unicode="&#59418;" d="M550.4 770.844444l326.371556-207.815111c20.821333-13.312 33.450667-36.295111 33.450666-60.984889v-443.904C910.222222 18.204444 877.795556-14.222222 837.802667-14.222222h-253.383111v290.133333H427.52V-14.222222H186.197333C146.204444-14.222222 113.777778 18.204444 113.777778 58.083556V508.302222c0 25.031111 12.970667 48.298667 34.247111 61.44L473.315556 771.413333a72.476444 72.476444 0 0 0 77.084444-0.455111z"  horiz-adv-x="1024" />
      
      <glyph glyph-name="teshubiaoqian" unicode="&#59419;" d="M483.181714 105.691429l378.221715 378.294857a7.899429 7.899429 0 0 1 2.267428 6.290285l-25.453714 301.421715a16.091429 16.091429 0 0 1-14.628572 14.628571L522.24 831.634286a7.753143 7.753143 0 0 1-6.363429-2.340572l-378.148571-378.148571a8.045714 8.045714 0 0 1 0-11.337143l334.189714-334.189714a7.826286 7.826286 0 0 1 11.264 0z m62.610286 651.702857l224.548571-19.017143 19.017143-224.548572-311.881143-311.808-243.565714 243.492572 311.881143 311.881143z m60.196571-186.221715a47.981714 47.981714 0 1 1 67.876572 67.876572 47.981714 47.981714 0 0 1-67.876572-67.876572z m283.721143-215.04l-39.643428 39.570286a8.045714 8.045714 0 0 1-11.264 0l-362.057143-361.325714L239.177143 271.36a8.045714 8.045714 0 0 1-11.264 0l-39.643429-39.497143a8.045714 8.045714 0 0 1 0-11.264l243.2-242.834286 39.643429-39.497142a8.045714 8.045714 0 0 1 11.264 0l407.332571 406.674285a8.045714 8.045714 0 0 1 0 11.264z"  horiz-adv-x="1024" />
      
      <glyph glyph-name="teshuzhengce" unicode="&#59420;" d="M296.009143 645.997714a8.045714 8.045714 0 0 1-8.045714-8.045714v-47.981714c0-4.388571 3.657143-7.972571 8.045714-7.972572h384c4.388571 0 8.045714 3.657143 8.045714 8.045715v47.981714a8.045714 8.045714 0 0 1-8.045714 7.972571h-384z m184.027428-144.018285H295.936a8.045714 8.045714 0 0 1-8.045714-8.045715v-47.908571c0-4.388571 3.657143-8.045714 8.045714-8.045714h184.027429c4.388571 0 7.972571 3.657143 7.972571 8.045714v47.981714a8.045714 8.045714 0 0 1-8.045714 8.045714z m-48.054857-457.947429H208.018286V748.032H768v-320c0-4.388571 3.657143-8.045714 8.045714-8.045714h55.954286c4.388571 0 8.045714 3.657143 8.045714 8.045714V787.968a31.963429 31.963429 0 0 1-32.036571 32.036571h-640a31.963429 31.963429 0 0 1-32.036572-32.036571v-783.945143c0-17.700571 14.336-32.036571 32.036572-32.036571h264.045714c4.388571 0 7.972571 3.657143 7.972572 8.045714v55.954286a8.045714 8.045714 0 0 1-8.045715 8.045714z m440.027429 87.990857H727.990857v36.571429a112.054857 112.054857 0 1 1-64 0v-36.571429H520.045714a16.091429 16.091429 0 0 1-15.945143-16.091428v-151.917715c0-8.777143 7.168-16.018286 15.945143-16.018285h352.036572a16.091429 16.091429 0 0 1 16.018285 16.018285v151.990857a16.091429 16.091429 0 0 1-16.091428 16.018286z m-226.011429 143.945143a50.029714 50.029714 0 1 0 100.059429 0 50.029714 50.029714 0 0 0-100.059429 0z m180.004572-265.947429H565.979429v59.977143h260.022857v-59.977143z"  horiz-adv-x="1024" />
      
      <glyph glyph-name="tuditongji1" unicode="&#59421;" d="M878.364444 782.222222H145.635556a31.857778 31.857778 0 0 1-31.857778-31.857778v-732.728888c0-17.635556 14.222222-31.857778 31.857778-31.857778h732.728888c17.635556 0 31.857778 14.222222 31.857778 31.857778V750.364444a31.857778 31.857778 0 0 1-31.857778 31.857778zM368.64 153.031111a7.964444 7.964444 0 0 0-7.964444-7.964444h-79.644445a7.964444 7.964444 0 0 0-7.964444 7.964444V614.968889a7.964444 7.964444 0 0 0 7.964444 7.964444h79.644445a7.964444 7.964444 0 0 0 7.964444-7.964444v-461.937778z m191.146667 278.755556a7.964444 7.964444 0 0 0-7.964445-7.964445H472.177778a7.964444 7.964444 0 0 0-7.964445 7.964445V614.968889a7.964444 7.964444 0 0 0 7.964445 7.964444h79.644444a7.964444 7.964444 0 0 0 7.964445-7.964444v-183.182222z m191.146666-71.68a7.964444 7.964444 0 0 0-7.964444-7.964445h-79.644445a7.964444 7.964444 0 0 0-7.964444 7.964445V614.968889a7.964444 7.964444 0 0 0 7.964444 7.964444h79.644445a7.964444 7.964444 0 0 0 7.964444-7.964444v-254.862222z"  horiz-adv-x="1024" />
      
      <glyph glyph-name="teshuyongtu" unicode="&#59422;" d="M464.018286 751.981714H159.963429a16.091429 16.091429 0 0 1-15.945143-15.945143v-304.054857c0-8.777143 7.168-15.945143 15.945143-15.945143h304.054857a16.091429 16.091429 0 0 1 15.945143 15.945143V736.036571a16.091429 16.091429 0 0 1-15.945143 15.945143z m-52.004572-267.995428H211.968V684.032h200.045714v-200.045714z m452.022857 267.995428H559.908571a16.091429 16.091429 0 0 1-15.945142-15.945143v-304.054857c0-8.777143 7.168-15.945143 15.945142-15.945143h304.054858a16.091429 16.091429 0 0 1 15.945142 15.945143V736.036571a16.091429 16.091429 0 0 1-16.018285 15.945143z m-52.004571-267.995428H611.986286V684.032h200.045714v-200.045714zM464.018286 352.036571H159.963429a16.091429 16.091429 0 0 1-15.945143-16.091428v-303.908572c0-8.777143 7.168-16.091429 15.945143-16.091428h304.054857a16.091429 16.091429 0 0 1 15.945143 16.091428V335.945143a16.091429 16.091429 0 0 1-15.945143 15.945143z m-52.004572-268.068571H211.968V284.013714h200.045714v-200.045714z m452.022857 268.068571H559.908571a16.091429 16.091429 0 0 1-15.945142-16.091428v-303.908572c0-8.777143 7.168-16.091429 15.945142-16.091428h304.054858a16.091429 16.091429 0 0 1 15.945142 16.091428V335.945143a16.091429 16.091429 0 0 1-16.018285 15.945143z m-52.004571-268.068571H611.986286V284.013714h200.045714v-200.045714z"  horiz-adv-x="1024" />
      
      <glyph glyph-name="sousuo2" unicode="&#59423;" d="M445.147429 822.857143a372.004571 372.004571 0 0 0 284.525714-611.693714L950.857143-17.188571l-64.877714-66.852572-224.768 232.009143A372.004571 372.004571 0 1 0 445.147429 822.857143z m0-85.869714a286.134857 286.134857 0 1 1 0-572.269715 286.134857 286.134857 0 0 1 0 572.269715z"  horiz-adv-x="1024" />
      
      <glyph glyph-name="yijiashuai" unicode="&#59424;" d="M855.698286 685.202286l-42.422857 42.422857a8.045714 8.045714 0 0 1-11.264 0L168.228571 94.134857a8.045714 8.045714 0 0 1 0-11.337143l42.422858-42.422857a8.045714 8.045714 0 0 1 11.264 0l633.636571 633.636572a7.826286 7.826286 0 0 1 0.073143 11.190857zM303.981714 448a144.164571 144.164571 0 0 1 144.018286 144.018286 144.164571 144.164571 0 0 1-144.018286 143.945143 144.164571 144.164571 0 0 1-143.945143-143.945143c0-79.433143 64.585143-144.018286 143.945143-144.018286z m0 215.990857a72.118857 72.118857 0 0 0 0-144.018286 72.118857 72.118857 0 0 0 0 144.091429z m416.036572-343.990857a144.164571 144.164571 0 0 1-144.018286-144.018286c0-79.36 64.585143-144.018286 144.018286-144.018285a144.164571 144.164571 0 0 1 144.018285 144.091428 144.164571 144.164571 0 0 1-144.091428 143.945143z m0-215.990857a72.118857 72.118857 0 0 0 0 144.018286 72.118857 72.118857 0 0 0 0-144.091429z"  horiz-adv-x="1024" />
      
      <glyph glyph-name="xuanzeriqi" unicode="&#59425;" d="M825.929143 714.166857H741.668571v54.418286a27.940571 27.940571 0 0 1-27.282285 28.525714 27.940571 27.940571 0 0 1-27.282286-28.525714v-54.418286H336.896v54.418286a27.940571 27.940571 0 0 1-27.282286 28.525714 27.940571 27.940571 0 0 1-27.282285-28.525714v-54.418286H198.070857c-45.202286 0-81.92-38.473143-81.92-85.796571v-571.757715c0-47.323429 36.717714-85.796571 81.92-85.796571h627.858286c45.202286 0 81.92 38.473143 81.92 85.796571V628.370286c0 47.323429-36.717714 85.796571-81.92 85.796571z m-627.858286-57.197714H282.331429v-50.688c0-15.798857 12.214857-28.525714 27.282285-28.525714a27.940571 27.940571 0 0 1 27.282286 28.525714v50.688h350.208v-50.688c0-15.798857 12.214857-28.525714 27.282286-28.525714a27.940571 27.940571 0 0 1 27.282285 28.525714v50.688h84.260572c15.067429 0 27.282286-12.873143 27.282286-28.598857v-138.971429h-682.422858v138.971429c0 15.725714 12.214857 28.525714 27.282286 28.525714z m627.858286-628.955429H198.070857a28.013714 28.013714 0 0 0-27.282286 28.598857V432.274286h682.422858v-375.588572a28.013714 28.013714 0 0 0-27.282286-28.525714zM641.097143 266.020571h-258.194286a27.940571 27.940571 0 0 1-27.282286-28.598857c0-15.798857 12.214857-28.598857 27.282286-28.598857h258.194286a27.940571 27.940571 0 0 1 27.282286 28.525714 27.940571 27.940571 0 0 1-27.282286 28.672z"  horiz-adv-x="1024" />
      
      <glyph glyph-name="tudibaogao" unicode="&#59426;" d="M835.584 782.222222C876.771556 782.222222 910.222222 748.771556 910.222222 707.527111v-647.054222c0-41.244444-33.450667-74.695111-74.695111-74.695111H188.472889A74.695111 74.695111 0 0 0 113.777778 60.472889V707.527111C113.777778 748.828444 147.228444 782.222222 188.472889 782.222222h647.054222z m-49.834667-522.695111H238.250667V184.888889h547.612444v74.695111zM462.222222 608.085333H312.888889c-41.244444 0-74.695111-33.450667-74.695111-74.695111v-124.472889c0-41.187556 33.450667-74.638222 74.695111-74.638222h149.333333a74.695111 74.695111 0 0 1 74.638222 74.695111V533.276444c0 41.244444-33.393778 74.695111-74.638222 74.695112z m323.584-199.111111h-199.111111v-74.695111h199.111111V408.860444zM462.222222 533.276444v-124.472888H312.888889V533.333333h149.333333z"  horiz-adv-x="1024" />
      
      <glyph glyph-name="zhankaishaixuan" unicode="&#59428;" d="M289.984 659.584l43.904 43.904a8 8 0 0 1-4.672 13.632L168.96 736a8 8 0 0 1-8.96-8.96l18.944-160.128c0.768-6.592 8.896-9.408 13.568-4.736l43.712 43.712 133.76-133.568a8 8 0 0 1 11.264 0l42.368 42.24a8 8 0 0 1 0 11.328l-133.696 133.76z m352.704-187.264a8 8 0 0 1 11.328 0l133.696 133.568 43.712-43.712c4.672-4.672 12.8-1.92 13.568 4.736l18.88 160.064a8 8 0 0 1-8.896 8.96l-160.192-18.944a8 8 0 0 1-4.672-13.568l43.904-43.904-133.76-133.504a8 8 0 0 1 0-11.328l42.432-42.368z m202.304-271.232a8 8 0 0 1-13.568 4.736l-43.712-43.712-133.76 133.568a8 8 0 0 1-11.264 0l-42.368-42.24a8 8 0 0 1 0-11.328l133.696-133.76-43.904-43.84c-4.736-4.736-1.92-12.8 4.672-13.632l160.192-18.88c5.12-0.64 9.536 3.712 8.96 8.96l-18.944 160.128zM381.312 295.68a8 8 0 0 1-11.328 0l-133.696-133.568-43.712 43.712a8 8 0 0 1-13.568-4.736l-18.88-160.064c-0.64-5.12 3.648-9.536 8.896-8.96l160.192 18.944a8 8 0 0 1 4.672 13.568l-43.904 43.84 133.76 133.568a8 8 0 0 1 0 11.328l-42.432 42.368z"  horiz-adv-x="1024" />
      
      <glyph glyph-name="zhongzhi" unicode="&#59429;" d="M741.312-64h-448a112 112 0 0 0-112 112V608H144a37.312 37.312 0 0 0 0 74.688h186.688V720c0 61.824 50.112 112 112 112H592c61.888 0 112-50.176 112-112v-37.312h186.688a37.312 37.312 0 0 0 0-74.688h-37.376v-560a112 112 0 0 0-112-112zM256 608v-560c0-20.608 16.704-37.312 37.312-37.312h448a37.312 37.312 0 0 1 37.376 37.312V608H256z m149.312 74.688h224V720a37.312 37.312 0 0 1-37.312 37.312H442.688a37.312 37.312 0 0 1-37.376-37.312v-37.312zM610.688 160a37.312 37.312 0 0 0-37.376 37.312v224a37.312 37.312 0 0 0 74.688 0v-224a37.312 37.312 0 0 0-37.312-37.312z m-186.688 0a37.312 37.312 0 0 0-37.312 37.312v224a37.312 37.312 0 0 0 74.624 0v-224a37.312 37.312 0 0 0-37.312-37.312z"  horiz-adv-x="1024" />
      
      <glyph glyph-name="zongjianmianji" unicode="&#59430;" d="M928.036571 503.954286a16.091429 16.091429 0 0 1 15.945143 16.091428V703.926857a16.091429 16.091429 0 0 1-16.018285 16.018286h-183.954286a16.091429 16.091429 0 0 1-16.018286-16.018286v-56.027428H296.009143v56.027428a16.091429 16.091429 0 0 1-16.018286 16.018286H96.036571a16.091429 16.091429 0 0 1-16.091428-16.018286v-184.027428c0-8.777143 7.314286-15.945143 16.091428-15.945143h55.954286v-240.054857h-55.954286a16.091429 16.091429 0 0 1-16.091428-15.945143v-184.027429c0-8.777143 7.314286-16.018286 16.091428-16.018286h183.954286a16.091429 16.091429 0 0 1 16.018286 16.018286v56.027429h431.981714v-56.027429c0-8.777143 7.241143-16.018286 16.018286-16.018286h183.954286a16.091429 16.091429 0 0 1 16.091428 16.018286V248.027429a16.091429 16.091429 0 0 1-16.091428 15.945142h-55.954286V504.027429h55.954286z m-136.045714 152.064h87.990857v-87.990857h-87.990857V656.018286z m-648.045714-87.990857V656.018286h88.064v-87.990857H144.018286z m88.064-456.045715H144.018286V199.972571h87.990857v-87.990857z m648.045714 87.990857v-87.990857h-88.064V199.972571h87.990857z m-80.091428 64h-55.954286a16.091429 16.091429 0 0 1-16.018286-15.945142v-56.027429H296.009143v56.027429a16.091429 16.091429 0 0 1-16.018286 15.945142h-55.954286V504.027429h55.954286a16.091429 16.091429 0 0 1 16.018286 15.945142v56.027429h431.981714v-56.027429c0-8.777143 7.241143-15.945143 16.018286-15.945142h55.954286v-240.054858z"  horiz-adv-x="1024" />
      
      <glyph glyph-name="xuanzechengshi" unicode="&#59431;" d="M854.601143 606.866286a362.496 362.496 0 0 1-79.872 115.712A375.076571 375.076571 0 0 1 512 829.001143c-50.102857 0-98.742857-9.581714-144.530286-28.525714a372.516571 372.516571 0 0 1-118.198857-77.750858c-34.157714-33.426286-61.074286-72.411429-79.872-115.712a355.181714 355.181714 0 0 1-29.403428-142.043428c0-70.582857 16.896-140.873143 50.102857-208.676572a660.553143 660.553143 0 0 1 111.030857-158.061714A893.147429 893.147429 0 0 1 489.472-54.857143a43.885714 43.885714 0 0 1 44.836571 0 893.147429 893.147429 0 0 1 188.416 153.014857 658.578286 658.578286 0 0 1 110.957715 158.061715 468.772571 468.772571 0 0 1 50.322285 208.603428c0 49.225143-9.874286 96.987429-29.403428 141.970286zM512 15.798857c-65.901714 41.910857-300.032 207.798857-300.032 449.097143 0 77.897143 31.158857 151.113143 87.625143 206.262857A302.226286 302.226286 0 0 0 512 757.028571c80.310857 0 155.721143-30.500571 212.406857-85.942857a286.061714 286.061714 0 0 0 87.625143-206.189714c0-241.298286-234.130286-407.186286-300.032-449.097143z m0 617.179429a175.981714 175.981714 0 1 1 0-351.963429 175.981714 175.981714 0 0 1 0 351.963429z m79.213714-255.195429c-21.211429-21.065143-49.298286-32.768-79.213714-32.768-29.915429 0-58.002286 11.702857-79.213714 32.768a111.616 111.616 0 0 0-32.768 79.213714c0 29.915429 11.702857 58.002286 32.768 79.213715A111.177143 111.177143 0 0 0 512 568.978286c29.915429 0 58.002286-11.556571 79.213714-32.768 21.211429-21.211429 32.768-49.298286 32.768-79.213715 0-29.915429-11.556571-58.002286-32.768-79.213714z"  horiz-adv-x="1024" />
      
      <glyph glyph-name="zichibili" unicode="&#59432;" d="M864.036571 378.002286H506.002286V735.963429a8.045714 8.045714 0 0 1-8.045715 8.045714h-25.965714A398.482286 398.482286 0 0 1 189.220571 626.834286 398.189714 398.189714 0 0 1 71.972571 343.990857a398.482286 398.482286 0 0 1 117.101715-282.770286 398.189714 398.189714 0 0 1 282.916571-117.248 398.482286 398.482286 0 0 1 282.843429 117.101715 398.189714 398.189714 0 0 1 117.174857 282.916571V370.102857a8.045714 8.045714 0 0 1-8.045714 7.972572z m-158.354285-269.824a331.629714 331.629714 0 0 0-235.300572-96.182857 329.874286 329.874286 0 0 0-233.179428 97.206857 329.874286 329.874286 0 0 0-97.206857 234.788571 329.874286 329.874286 0 0 0 97.206857 234.788572A329.142857 329.142857 0 0 0 437.979429 674.377143v-364.251429h364.251428a329.289143 329.289143 0 0 0-96.548571-201.874285z m246.345143 325.485714l-2.633143 28.16a397.824 397.824 0 0 1-115.2 244.589714A399.36 399.36 0 0 1 589.019429 821.394286L560.713143 824.027429a7.972571 7.972571 0 0 1-8.777143-7.899429v-384.146286c0-4.388571 3.657143-8.045714 8.045714-8.045714l384 1.097143a8.045714 8.045714 0 0 1 8.045715 8.557714z m-332.214858 58.148571V748.397714c62.610286-13.165714 120.685714-44.178286 166.4-89.819428a330.166857 330.166857 0 0 0 89.965715-166.034286l-256.365715-0.731429z"  horiz-adv-x="1024" />
      
      <glyph glyph-name="paihangbang-2" unicode="&#59400;" d="M692.187429 896v-318.683429l180.114285 146.944V896h-180.114285zM151.698286 724.260571l180.114285-146.944V896H151.698286v-171.739429z m257.316571-209.92l77.202286-63.195428a36.937143 36.937143 0 0 1 51.053714 0l77.165714 63.195428V896h-205.824v-381.659429h0.402286zM834.267429 539.648c10.752 70.656-19.2 100.242286-89.6 89.6a165.522286 165.522286 0 0 0-169.142858 70.144c-42.276571 57.234286-84.553143 57.234286-126.866285 0a165.485714 165.485714 0 0 0-169.106286-70.144C209.115429 640 179.2 610.230857 189.952 539.648a164.864 164.864 0 0 0-69.997714-168.96c-57.344-42.24-57.344-84.699429 0-126.902857a165.12 165.12 0 0 0 69.997714-169.033143c-10.752-70.582857 19.2-100.205714 89.6-89.6a165.485714 165.485714 0 0 0 169.106286-70.034286c42.313143-57.344 84.589714-57.344 126.902857 0a165.522286 165.522286 0 0 0 169.106286 70.034286c70.436571-10.752 100.352 19.090286 89.6 89.6a164.864 164.864 0 0 0 69.961142 169.069714c57.270857 42.166857 57.270857 84.48 0 126.829715a165.193143 165.193143 0 0 0-69.961142 168.996571zM230.4 307.090286a281.6 281.6 0 1 1 563.2 0 281.6 281.6 0 0 1-563.2 0zM605.622857 153.453714v63.341715h-110.445714l72.484571 76.982857a99.328 99.328 0 0 1 37.668572 74.898285 89.6 89.6 0 0 1-97.572572 91.977143 91.245714 91.245714 0 0 1-98.413714-92.818285h70.144a26.258286 26.258286 0 0 0 28.269714 29.513142 25.6 25.6 0 0 0 27.392-28.233142 43.117714 43.117714 0 0 0-15.36-32.548572L409.6 216.832v-63.268571l196.022857-0.073143z"  horiz-adv-x="1024" />
      
      <glyph glyph-name="paihangbang-1" unicode="&#59401;" d="M692.177776 896v-318.666357l180.104637 146.936128V896h-180.104637zM151.717587 724.269771l180.104637-146.936128V896H151.717587v-171.730229z m257.302787-209.908755l77.19815-63.192043a36.935164 36.935164 0 0 1 51.050979 0l77.161581 63.192043V896h-205.812974v-381.638984h0.402264zM905.012089 371.593807A165.513419 165.513419 0 0 0 834.908416 540.910451c10.751424 70.835062-19.235541 100.529472-89.814617 89.851187a165.879114 165.879114 0 0 0-169.6092 70.469367c-42.347446 57.414067-84.731461 57.414067-127.115476 0a165.879114 165.879114 0 0 0-169.426352-70.28652c-70.615646 10.787994-100.566041-19.125833-89.814617-89.814617a165.367141 165.367141 0 0 0-70.103673-169.389783c-57.523776-42.347446-57.523776-84.841169 0-127.188615a165.513419 165.513419 0 0 0 70.103673-169.389782c-10.787994-70.798493 19.235541-100.492902 89.814617-89.814617a165.879114 165.879114 0 0 0 169.426352-70.286521c42.420585-57.414067 84.76803-57.414067 127.115476 0a165.879114 165.879114 0 0 0 169.499491 70.213382c70.615646-10.787994 100.566041 19.198971 89.814617 89.814617a165.367141 165.367141 0 0 0 70.103673 169.462921c57.633484 42.128029 57.633484 84.475475 0.03657 126.969199h0.073139zM227.562666 308.182347a284.437334 284.437334 0 1 1 568.874668 0 284.437334 284.437334 0 0 1-568.874668 0zM568.902095 137.549203v303.380319H490.058318l-72.919522-56.316983v-74.528579l72.919522 56.243844v-228.815171z"  horiz-adv-x="1024" />
      
      <glyph glyph-name="paihangbang-3" unicode="&#59402;" d="M692.187429 896v-318.683429l180.114285 146.944V896h-180.114285zM151.698286 724.260571l180.114285-146.944V896H151.698286v-171.739429z m257.316571-209.92l77.202286-63.195428a36.937143 36.937143 0 0 1 51.053714 0l77.165714 63.195428V896h-205.824v-381.659429h0.402286zM900.534857 378.002286a165.156571 165.156571 0 0 0-69.924571 168.996571c10.752 70.656-19.2 100.278857-89.6 89.6a165.558857 165.558857 0 0 0-169.179429 70.180572c-42.313143 57.234286-84.589714 57.234286-126.902857 0a165.522286 165.522286 0 0 0-169.142857-70.180572c-70.473143 10.788571-100.388571-18.980571-89.6-89.6a164.900571 164.900571 0 0 0-70.034286-168.996571c-57.344-42.24-57.344-84.699429 0-126.902857a165.156571 165.156571 0 0 0 69.997714-169.106286c-10.752-70.582857 19.236571-100.205714 89.6-89.6a165.522286 165.522286 0 0 0 169.179429-70.070857c42.313143-57.344 84.589714-57.344 126.902857 0a165.558857 165.558857 0 0 0 169.142857 70.070857c70.473143-10.752 100.388571 19.090286 89.6 89.6a164.900571 164.900571 0 0 0 70.034286 169.106286c57.234286 42.203429 57.234286 84.48 0 126.866285l-0.073143 0.036572zM219.428571 321.828571a281.6 281.6 0 1 1 563.2 0 281.6 281.6 0 0 1-563.2 0zM621.641143 253.074286c1.097143 25.307429-13.348571 49.188571-37.961143 62.610285 22.491429 11.629714 35.730286 33.243429 34.230857 55.990858-0.182857 23.844571-11.702857 46.518857-31.817143 62.683428-20.077714 16.164571-46.957714 24.32-74.24 22.528-27.538286 1.828571-54.710857-6.509714-74.861714-23.003428-20.150857-16.457143-31.451429-39.606857-31.085714-63.707429h75.958857a23.881143 23.881143 0 0 0 8.228571 19.236571 31.744 31.744 0 0 0 21.796572 7.826286 31.561143 31.561143 0 0 0 22.016-7.899428 23.661714 23.661714 0 0 0 8.045714-19.565715 23.954286 23.954286 0 0 0-8.777143-19.675428 32 32 0 0 0-22.674286-7.314286h-10.678857v-57.161143h10.788572c9.325714 0.292571 18.432-2.779429 25.088-8.484571a27.721143 27.721143 0 0 0 10.057143-21.76 25.380571 25.380571 0 0 0-8.557715-22.308572 34.230857 34.230857 0 0 0-25.197714-8.338285 34.523429 34.523429 0 0 0-24.868571 8.338285 25.709714 25.709714 0 0 0-8.886858 21.869715h-75.885714c-1.133714-25.124571 10.276571-49.481143 31.305143-66.742858s49.590857-25.709714 78.336-23.186285c28.379429-2.56 56.685714 5.668571 77.641143 22.528 20.992 16.896 32.658286 40.777143 32.036571 65.645714l-0.036571-0.073143z"  horiz-adv-x="1024" />
      
      <glyph glyph-name="doubleleft" unicode="&#59219;" d="M512 153.12231469000005l327.40631104 256.27670265a7.7247622 7.7247622 0 0 0 12.48321509-6.05621362v-74.65209914c0-4.75845361-2.22473145-9.26971435-5.87081861-12.17422508l-314.9848938-246.57440187a30.89904809 30.89904809 0 0 0-38.12942529 0L177.98129248 316.57827735A15.32592797 15.32592797 0 0 0 172.11047387 328.69070458V403.34280372c0 6.42700219 7.41577148 10.01129151 12.48321509 6.05621362L512 153.12231469000005z m0 293.54095435L839.40631104 702.93997169a7.7247622 7.7247622 0 0 0 12.48321509-6.05621291v-74.65209985c0-4.75845361-2.22473145-9.26971435-5.87081861-12.17422509l-314.9848938-246.57440185a30.89904809 30.89904809 0 0 0-38.12942529 0L177.98129248 610.11923242A15.32592797 15.32592797 0 0 0 172.11047387 622.23165893V696.88375878C172.11047387 703.31076026 179.52624536 706.89505028 184.59368896 702.87817383L512 446.66326904z"  horiz-adv-x="1024" />
      
      </font>
</defs>
</svg>
